<mxfile host="app.diagrams.net" modified="2022-10-22T06:34:47.850Z" agent="5.0 (Windows)" etag="ONqNWzSlbhfWWZTnbcHS" version="20.4.2" type="github">
  <diagram id="fb8ZDuRJnv1m2EMCCQK1" name="第 1 页">
    <mxGraphModel dx="2473" dy="1708" grid="1" gridSize="10" guides="1" tooltips="1" connect="1" arrows="1" fold="1" page="0" pageScale="1" pageWidth="827" pageHeight="1169" background="#ffffff" math="1" shadow="0">
      <root>
        <mxCell id="0" />
        <mxCell id="1" parent="0" />
        <mxCell id="59596a_35e80KVfduihG-106" value="" style="rounded=0;whiteSpace=wrap;html=1;strokeColor=#36393d;strokeWidth=1;fontFamily=Times New Roman;fontSize=18;fillColor=#eeeeee;" vertex="1" parent="1">
          <mxGeometry x="-630" y="280" width="630" height="550" as="geometry" />
        </mxCell>
        <mxCell id="59596a_35e80KVfduihG-109" value="" style="shape=tapeData;whiteSpace=wrap;html=1;perimeter=ellipsePerimeter;strokeColor=default;strokeWidth=1;fontFamily=Times New Roman;fontSize=18;fillColor=#ffcccc;" vertex="1" parent="1">
          <mxGeometry x="-300" y="-490" width="190" height="80" as="geometry" />
        </mxCell>
        <mxCell id="59596a_35e80KVfduihG-61" value="" style="shape=ext;double=1;rounded=0;whiteSpace=wrap;html=1;strokeColor=#d6b656;strokeWidth=1;fontFamily=Times New Roman;fontSize=18;fillColor=#fff2cc;" vertex="1" parent="1">
          <mxGeometry x="357.94" y="120" width="150" height="55" as="geometry" />
        </mxCell>
        <mxCell id="59596a_35e80KVfduihG-50" value="" style="whiteSpace=wrap;html=1;shape=mxgraph.basic.cloud_callout;strokeColor=#36393d;strokeWidth=1;fontFamily=Times New Roman;fontSize=21;fillColor=#ffff88;" vertex="1" parent="1">
          <mxGeometry y="-121.55" width="310" height="230" as="geometry" />
        </mxCell>
        <mxCell id="59596a_35e80KVfduihG-48" value="" style="rounded=0;whiteSpace=wrap;html=1;strokeColor=#d6b656;strokeWidth=1;fontFamily=Times New Roman;fontSize=21;fillColor=#fff2cc;" vertex="1" parent="1">
          <mxGeometry x="-110" y="-650" width="440" height="90" as="geometry" />
        </mxCell>
        <mxCell id="59596a_35e80KVfduihG-1" value="" style="rounded=0;whiteSpace=wrap;html=1;fillColor=#dae8fc;strokeColor=#6c8ebf;" vertex="1" parent="1">
          <mxGeometry x="365.44" y="124.99000000000001" width="15" height="40" as="geometry" />
        </mxCell>
        <mxCell id="59596a_35e80KVfduihG-2" value="" style="rounded=0;whiteSpace=wrap;html=1;fillColor=#dae8fc;strokeColor=#6c8ebf;" vertex="1" parent="1">
          <mxGeometry x="395.44" y="124.99000000000001" width="15" height="40" as="geometry" />
        </mxCell>
        <mxCell id="59596a_35e80KVfduihG-3" value="" style="rounded=0;whiteSpace=wrap;html=1;fillColor=#dae8fc;strokeColor=#6c8ebf;" vertex="1" parent="1">
          <mxGeometry x="425.44" y="124.99000000000001" width="20" height="40" as="geometry" />
        </mxCell>
        <mxCell id="59596a_35e80KVfduihG-4" value="" style="rounded=0;whiteSpace=wrap;html=1;fillColor=#dae8fc;strokeColor=#6c8ebf;" vertex="1" parent="1">
          <mxGeometry x="485.44" y="124.99000000000001" width="15" height="40" as="geometry" />
        </mxCell>
        <mxCell id="59596a_35e80KVfduihG-5" value="&lt;font style=&quot;font-size: 21px;&quot;&gt;&lt;b&gt;...&lt;/b&gt;&lt;/font&gt;" style="text;html=1;align=center;verticalAlign=middle;resizable=0;points=[];autosize=1;strokeColor=none;fillColor=none;" vertex="1" parent="1">
          <mxGeometry x="445.44" y="124.99000000000001" width="40" height="40" as="geometry" />
        </mxCell>
        <mxCell id="59596a_35e80KVfduihG-12" value="" style="shape=image;verticalLabelPosition=bottom;labelBackgroundColor=default;verticalAlign=top;aspect=fixed;imageAspect=0;image=data:image/png,iVBORw0KGgoAAAANSUhEUgAAAMgAAADICAYAAACtWK6eAAAPDklEQVR4Xu2dC3BU1RnHv5uEMdaSRCdLFiU18hhF6AwtbanBGcFRR1tREDu1ZdDQjk6LTsBCxJZMG19TU3WQOK0zvoJSOlLLQ9Gh01KgDo9SB7QPpRQDEQtuyAoJIQKS7O05W5dudu+G/Xbv3t17vv+ZYZjB7577/b/z/3nOua+1KMdtdLBySoRoikXWVbZNFRZRDVlUkePTons/VMCmLpuo3SK73bbobxEqWdYeCrUXUurKr7lpUTBsa4ll0YTcnAG9GlqBzUX9dO/ezs53CkGf64DUBIM1xdTfqsRNKQSByMG3FVjWFuqck+/sXQVEzxo2WRqOmnwLw/n9XwG1JH8nYhXPyOeyyzVAxgQCEyJFtAn7C/8bs6AUqH1K/6nTl7R3dXXlIy9XAKmpqKgoLh3ydqqZo6ysnMaOH09jLz1EI4b/gy66SG3b0cRXoKfHovd2l9COLZ+j3W1qu566bVbLran5KJgrgIwKBvSyqs5JwKTaydT8ZAuNqK4mOqGWlKeX5UMnzlnAFejbP5ze/Us5LX6hm/51oC9VpnMUJJ6bJ2tAPtt3bEpUpWeN+oUNVHfnXf//TwCkgG2av9Q0IP2HKqMJ/OrV4/RL9Sep5WmplTUgo6oq15BlTU8UVL+gIQrIgAZA8ufCAj5zPCA6zfqnjtKf3j6VzIht37uvI/ykl1KyAiS69zhnyP7EjbleVj3duoz0LAJAvBxOf54rEZCeTyI0s+ljOhjuHyhIzSJtHZ3ne6kyK0BGDRs2nYrsNYkJr1i1libV1ibrwAzi5dj65lyJgOjE1249QYuf707S0E/Fl3h52TcrQEZWVc63LGtJoopde/Ymzx46CID4xrReJuoEiJ5Fvn7P4aQ01GMpU98PhTd7lV9WgDhdvRo7bjyt27DROX8A4tW4+uo8ToBoAeO+F8r7PiQ7QBw26PqqVeODDwMQX1k0v8mmAmRmUzjpsq9N9gP7QuEmrzIGIF5VGudJWYFUgNQ1H6G39nw64DgAAiOJqwAAiQ059iDizJ+OYAACQNLxidgYAAJAxJo/HeEABICk4xOxMQAEgIg1fzrCAQgASccnYmMACAARa/50hAMQAJKOT8TGABAAItb86Qg3FpDRVYEl6oNf8+OLgGex0rEEYuIrYCwg6mneOiVUv49+pqV8F0RH4E46yHCogLGAaK2xWeTz55X2z1/UWDzgHfTEYgAQACINkJhe+/Sru6jkpi8N6gAAAkAAyCAeACAABIAAEFDAq4DRexAssXhmQHRyBQBIrCZYYoEPLLGwxAIFvApgBsEMwnOMsGgAAkCEWZ4nF4AAEJ5jhEUbDYj+Pm9JacmEZ1+c98yU6xrH4EahMHe7INdYQBJ/OGfQryrqQuIqlgt2Mq8LYwEZGaxsUj/v/LP4IdNfVUz5PBYAMc/dLigyFhCn3wbB4+4uOEZYFwAEm3RhlufJBSAAhOcYYdEABIAIszxPLgABIDzHCIsGIABEmOV5cgEIAOE5Rlg0AAEgwizPkwtAAAjPMcKiAQgAEWZ5nlwAAkB4jhEWDUAAiDDL8+QCEADCc4ywaAACQIRZnicXgAAQnmOERRsLCL7uLszJOZJrLiDByik2WZtidSsrK6cVq9eQfrPQseGFqRxZzN/dGguIHpYxgcCESDHNu/4bE2+6+0ePXZASDh0MQPzt5BxlbzQgsZrh6+45co+AbgEINukCbJ65RAACQDJ3j4AjAQgAEWDzzCUCEACSuXsEHAlAAIgAm2cuEYAAkMzdI+BIAAJABNg8c4kABIBk7h4BRxoNyGj1uAnZ1s233nblrLsXLA2MqK5OPaS4ky7A7nyJxgKi4bBtaw1ZVKHLop/Fem3DRkoJCQDhu0fAEcYCMioYaFXjVxc/hvULGqh+YYPzsAIQAXbnSzQXkKpKNXtY0+NLgq+78w0i/QgAgk26dAYG1Q9AAAgAGaQCAASAABAA8r8KYA8CFrgVwAyCGYTrGVHxAASAiDI8VywAASBcz4iKByAARJThuWIBCADhekZUPAABIKIMzxULQAAI1zOi4gEIABFleK5YAAJAuJ4RFQ9AAIgow3PFAhAAwvWMqHgAAkBEGZ4rFoAAEK5nRMUDEAAiyvBcsQAEgHA9IyoegAAQUYbnigUgAITrGVHxAASAiDI8VywAASBcz4iKByAARJThuWIBCADhekZUPAABIKIMzxULQAAI1zOi4gEIABFleK5YAAJAuJ4RFQ9AAIgow3PFAhAAwvWMqHgAAkBEGZ4rFoAAEK5nRMUDEAAiyvBcsQAEgHA9IyoegAAQUYbnigUgAITrGVHxAASAiDI8VywAASBcz4iKByAARJThuWIBCADhekZUPAABIKIMzxULQAAI1zOi4gEIABFleK5YAAJAuJ4RFQ9AAIgow3PFAhAAwvWMqHgAAkBEGZ4rFoAAEK5nRMUDEAAiyvBcsQAEgHA9IyoegAAQUYbnigUgAITrGVHxAASAiDI8VywAASBcz4iKByAARJThuWIBCADhekZUPAABIKIMzxULQAAI1zOi4gEIABFleK5YAAJAuJ4RFQ9AAIgow3PFAhAAwvWMqHgAAkBEGZ4rFoAAEK5nRMUDEAAiyvBcsQAEgHA9IyoegAAQUYbnigUgAITrGVHxAASAiDI8VywAASBcz4iKByAARJThuWIBCADhekZUPAABIKIMzxULQAAI1zOi4gEIABFleK5YAAJAuJ4RFQ9AAIgow3PFAhAAwvWMqHgAAkBEGZ4rFoAAEK5nRMUDEAAiyvBcseYCEqx8ncj6ZnxBvntHHS38yWLnGp24m+j0b7j1Q7zhFeg7EKTIRxckqZy7tIt27f10wL/bZD+wLxRu8qokVjYnGlUVOEQWDc+mDxyLCvAqYG9uC4Wn8o7JPBqAZF47HJmXCgCQvJQdJ/VLBQCIX0YKeealAgAkL2XHSf1SAZ8DUnfnXTTz27f5pdrIs0Aq0Nv7CR05enRANg/8+D7q+OijhAwNAKTxwYcLpOxIwy8V6OnpocOdnQPSnVt3O7Xt/TcA8csgIs/cVQCA5K62Bd/zjm3baMe2rbRj+zY61t1Nx451R3MeUf0FKisro7HjxtO1N9wQ/VtqAyDCRl5DsGH9emp99hna/e4/01KvAZmj9nC3CNzDAZC0LGJGkJ4xHv5pY9pgJKrWoOh93KTaWjMKkoYKAJJGkUwIWaZmjJbHHzuzjMpGk4ZEXxWU0ACIgFFeNL+eVq182VWl9QsaqH5hg6t9FmJnAKQQR8XFnPTMoZdVqVqkdCiduvAy6h13NUVKy6jo5DE6d99bdM6hPVRy9OCgmfziyRbj9yUAxEUzFlpXf/z9elo0r95xWaXB6PnKdDpyzVwFxlDH1ItO9lDlumYaunNtSmnrNmw0+ioXACk0V7uUj75aNeuWGY4bcj1jHFVg9F5+dVpnG7rzVQXKo2p26UmK1xt3DYmpDYAYOrKpllZ9519EH877XcpZI1U5NBwXP3qdIyRPt75I115/g5GVBCBGDivRVV+bSAc//DBJ3aG7WunEyK9mpPq89zZS8KV6UbMIAMnIKoV9kL4BOO2a5OVT95WzKXzjoqySDy6vp/PeTV5Sbf7rTnUHvjqrvgvxYABSiKOSZU76fkfLE48N6EVvxD+4/w/spVViKnqpdUnTFUkZmnpvBIBkacZCPPyHc+4gfQUrvunLuKHZLa6kqwFJ3LDrVwma1WVf0xoAMW1ElZ5ZM2dEH0KMb/pyrr5y5Ua78Jk50Xsl8U1v0vVm3bQGQEwbUaXHaYN++FuPUM/Em11RW/l6M5VvWT6gL1Mv9wIQVyxTWJ18+dIxSTcHw9MWUffk2a4kWr51efQGYnwDIHij0BVzedGJvoKV+Ci7m0usYa80Jt1dn1Q7mVasWuOFPE/PgRnE03J7c7Jcb9Kd9iD66V4TX2kGIN541tOzpLrMu79pe9Z5lBw9RBc3X5fUj6l30wFI1pYpvA70c1h6H5LY3LjUixuFRPhoQ+F5np1RqkdNQre3pP2QYuJJnTbnOsbUS7xaG2YQtvX8ccBq9YLUfepFqcSm76hnstTSS6vqpTMdH1ZcsWqtsa/hAhB/+D2jLFPNIhqS8LT7074vMtjj7ibPHphBMrKdfw7SH2mYNXN6yoR7Jk5XoCwa9IWpYa8sdnw4UXdaVlZOK1avwQtT0QrjPoh/yIjLVD+TpS/7Dtb05v3U8MuiIZFzh9IQtZwqVY+SDDly0HFJFevL1CtX8bUyc4kVDLyvRI6KF2rqdfp0qNXvpOsXqNxsEt5HZy2xbHttW0d4hps1HqyvrH5AZ2RV4G3LognxJzB9rXy2gTnbxxvOdnzsv+tlVfPSFmPfIEysQ7f64mT4448H/PPtt85I/ni1TS+3dXR+J906ZhuXHSDBwGuqg2nxSeiB3bVnb7Z5+fp4/fjJD9Ryy+lNw3SE6cdJGh98yOg9R2Id9Ier9TIr1vRX3TUgyc1qaAsdfjydOroRkx0gVYGfqxnk/sRETH3rjVtwfQl41W9XJj0S79SP/h/L2PHjSX8HS9IXFWO1+ODAAerr6ztTmm1vvkn65w+SWsSa0Xb4cOrPv3AH6SzxWQFSU1FRUVw6ZOCPOqgTSl9mJdZc33FfvXJl9MHG/3z2/rr+iLV+dbasvJwmXVFL16iPV2tIJLZIJEL729vPSD9+/Djdd89ch58+oJP9J08Pb+/q6vKqTlkBopNUv3R7UP3S7YWJCUu48uLVIJl+Hr330HuQWPv1C8/R8uefc5L9Rluo80Yv65E9IMFAnUq41SlpyVe0vBxEP5+rt7eXQh0dUQl65njikYdo25t/dpRkkT31/VB4s5d6swYkOosEA39Xf33RKXH9gs/lam2t/5b8+xdeDqpfzmXbEWpXSyu97NS/JLVd7TuOH0/+aJ7Wo+B4WsHhzrvMjAK5AkhNMFhTTP37GedFKCrAqID1Xv/JTyd7ufeIJecKILqz0cHKKTZZmxiqEYoKpFOBY0X9dNXezs530gl2O8Y1QHRiYwKBCZEiesNp0+524uhPRAW29FPx7PZQqD1fal0FJCZiZFXlfMuyluRLFM7r7wrYRL1k242RU33L8rGsiq9eTgBJAOX7ZNMINatU+HvYkH0OK6DvEIbVn93qz0vqXsfafIMR0/pfXlTSufBUT28AAAAASUVORK5CYII=;" vertex="1" parent="1">
          <mxGeometry x="-306.9" y="7.105427357601002e-15" width="60.01" height="60.01" as="geometry" />
        </mxCell>
        <mxCell id="59596a_35e80KVfduihG-13" value="" style="shape=image;verticalLabelPosition=bottom;labelBackgroundColor=default;verticalAlign=top;aspect=fixed;imageAspect=0;image=data:image/png,iVBORw0KGgoAAAANSUhEUgAAAMgAAADICAYAAACtWK6eAAAKA0lEQVR4Xu2dz24bVRSHp9CStkJqVZGqiwq1i0r8ESJB3VVKkwXrtgu2JX0BIC9A0icILLpELRJ7eIO4KorURYXZVyKLLEKFhIsEompUc49rx4M9nvE59ow993wjWQS4Z2bu79zPv3M9c2eOJWwogAIjFTiGNiiAAqMVABBGBwrkKAAgDA8UABDGAArYFMBBbLoR5UQBAHGSaLppUwBAbLoR5UQBAHGSaLppUwBAbLoR5UQBAHGSaLppUwBAbLoR5UQBAHGSaLppUwBAbLoR5UQBAHGSaLppUwBAbLoR5UQBAHGSaLppUwBAbLoR5UQBAHGSaLppUwBAbLoR5UQBAHGSaLppUwBAbLoR5UQBAHGSaLppUwBAbLoR5UQBAHGSaLppUwBAbLoR5UQBAHGSaLppUwBAbLoR5UQBAHGSaLppUwBAbLoR5UQBAHGSaLppUwBAbLoR5UQBAHGSaLppUwBAbLoR5UQBAHGSaLppUwBAbLoR5UQBAHGSaLppUwBA9LqdDSFfhc+N8JG/Z701wwnshc/GrE8kxuMDiD6rP4aQm/qw0iN+Cke4VfpRnB0AQHQJXwrNf9GFVNr6ctdNKj1ozAcDEF1210Pz+7qQSluvhaM1Kj1i5AcDEF2ChwDZ2trS7SHVutVqJc2mTCH0W7vdTh4+fDgYCCB6KXMjAEQn6BAgMlCtW6PRSNbWZEzrt4sXLyb7+/sAopdOFQEgKrkSANHpVfvWAKJLIYDo9Kp9awDRpRBAdHrVvjWA6FIIIDq9at8aQHQpBBCdXrVvDSC6FAKITq/atwYQXQoBRKdX7VsDiC6FQ4Ds7Ozo9pBq/fTp0+TevXum+IWFheTx48eDsVwoNKk5OghAdIIOAaILL701gExZYgDRCQogOr1q3xpAdCkEEJ1etW8NILoUAohOr9q3jhkQWe23Gj6XwmdaK/9kPYisJJzX7ftwYntTPLlW2JfcbtyY4j5rtatYAZFv+u0pglGrpJZwsg/CPmVJrwDjaosREHENWRY7LddwNSByOutySW+MgMzrmvEYQHO3pDdGQH4LI/FSDKNxDvsgZdY3c3hepZ1SjIDYl/iVJnM0O74berIVTW/G6AiAjCESTY4UAJAIBgMOUl4SAaQ8bSvbM4CUJzWAlKdtZXvOBWR1dTXZ3Nys7GTqciB5hNAYjzACkLokNOc8CwGZ5Bb1CPTJ7MKYjyACkAgGAIAYkggg2aK5+xVLSiwcZHgwAAiAdBQAkOyBACAAAiA5pReAAAiAAIh6dsYcRC1ZnAFjOgj3YkWQfn7FMiTxyZMnratXrxYtEZA3WMlt7242HMRNqvM7Gt5T8sfy8vLPodWo18vJykJ5aoqrRVMAAiAdBbqAXAl/yoO+ZGlxehMoxD0a3uQCEG8ZH9HfLiCL3f8tb/G93v371/BPWQPiyjl6MgEIgKQdpAcIqnQVABCGAoDkjAEAARAAAZC+Atxqkj0aUnMQmaDLq64vhY/87Cs/637rcYIuSuEgOEjaQT4L/zLqkUnuroEACHAcKdB1EHmv9OBPvL028ivWcvjseZINB/GU7Zy+7u7u/nvt2rWTBXK4cxEAAZCOAo8ePTpcWVk5XiAHKwojGC/ci2VI4pg3KwKIQdt5CwEQQ0YAJFs0SizDYIoxBEAApKMA10GyBwKAAAiA5FgfgAAIgACIujpmDqKWLM4AHAQHwUFwEPW3Gw6ilizOABwEB8FBcBD1t5t7BzlzcDo5TF6qhRsMOHH4VvLOX+cn3k+VO/ju3fvJ9bdXO4cc816sO6HpgyrPcdbHcg/IyWdvJO1jU3ilSGDs1bNZp1N3fAHk9rn1ThCP/aHEyiyxAOQ1IN3b3X8If8oDG7I2XgOt+/6Z29aqe7EA5H+AyEMbtjMgaYT/Jre6u3uyCSUWJVbaQXpPNZFFU/KRJbcChzw0zuUGIACSBYhLGLI6DSAAAiA5XwcAAiAAAiB9BQZvd2eSPjRJp7xKKYCD4CA4CA6Cg2SNgfSFwoGHV+MiXQVwEBwEB8FBcBAcxGaKOAgOgoPgIDgIDoKD9BTgXqwxxwKT9GKhKLEosSixKLEosRQlltygKDcq3ggf+bv3jsLir9sIW+AgOEjaQeQtt/LynMFXQcvdvLKa0N1dvQACIGlA8hZM7YWGlyM0idwuAQiAdAbImEtu10LThidI3APy/sGV5J/23xPn/Hj7RLL04pOJ91PlDr5Y/PLooQ1jvh9kI5yfvDPdzeYeEDeZLugoz8XKFghAIKSjAIAASEcBXn+QPRAABEAAJMctAQRAMgGZ1iT9VPt08uGLj2pVsKUn6QACIJmAsOR2nTlIztea+0k6gABInu0DCBcKcRAcpK8ATzXpa5G+3Z05CHMQ5iADYwBAin9TocSixKLEosSixMoaAzgIDjKkAHMQ5iDFWPRbUGJRYlFiUWJRYlFiaXwDBzlSgAuFXCjkQmFKAeYgzEE0XsIchDkIcxDmIMxBmINofIM5CHOQoADXQYqhocSixKLEosSixKLEKnaLrBY4CA6Cg+AgOAgOgoP0FOD1B2OOBSbpxUK5L7HOHJxODpOXxUoVtHjz1fHkfOvCxPupcgdfX9hMbp/jSjpX0nOupFc5IOf5WKwozM6OeweZ50Fb5bkBCIB0FODJitkDAUAABEByLAlAACQTkE9/X0uet59PXM0stheT9159MPF+qtzB7XOfJx+fkret8fDqUbq7n4OwHoRfsfgVK+dXLAABEAABkMwxwIXC4oKWEot7sZiD5HACIAACIADSV4A16X0tKLEosYYUABAAKcai34ISixKLEosSixIrawxQYhV7CQ6Cg+AgOAgOgoMUu0VWCxwEB8FBcBAcBAfBQXoKsCZ9zLHAJL1YKEosSixKLEosSixKrGK3YJIeFOBKOlfSNahQYlFiUWJRYlFiUWJpfKPfFgfBQXAQHAQHwUFwENN1EJts8UXx2J/snLovseIb6rYeAQiAdBTgyYrZAwFAAKSjwNLSUrK9vW37mo04qtlsJhsbG0U9vBsabBU1iun/uyuxYkreDPoCIDMQfdqHzL1ZcdoHc7Y/AIkg4QBSXhIBpDxtK9szgJQnNYCUp21le/4zHOlsZUfzdaA7obsPPHU5xkn6jvya6ymJFfZ1ORyrWeHxZn6oGAEROAQStukqIM4hDuJqixEQSeB6+Nx3lclyO9sIu78VPq1yDzN/e48VkJ7SN8Mfr1+hxGZRQIAQOFyVVWmhYgfEMiiIQYEjBQCEwYACOQoACMMDBQCEMYACNgVwEJtuRDlRAECcJJpu2hQAEJtuRDlRAECcJJpu2hQAEJtuRDlRAECcJJpu2hQAEJtuRDlRAECcJJpu2hQAEJtuRDlRAECcJJpu2hQAEJtuRDlRAECcJJpu2hQAEJtuRDlRAECcJJpu2hQAEJtuRDlR4D8VbUEjzfdhzQAAAABJRU5ErkJggg==;" vertex="1" parent="1">
          <mxGeometry x="-291.9" y="10.010000000000012" width="29.99" height="29.99" as="geometry" />
        </mxCell>
        <mxCell id="59596a_35e80KVfduihG-14" value="" style="shape=image;verticalLabelPosition=bottom;labelBackgroundColor=default;verticalAlign=top;aspect=fixed;imageAspect=0;image=data:image/png,iVBORw0KGgoAAAANSUhEUgAAAMsAAADICAYAAABGbxWdAAAVGUlEQVR4Xu1dTWxdRxWeuc8OhdVzCmID9Dkpqtg5W/JTO2XDgibewaq2YMeiMaqbQon/qlK1iRQbsUSqs+oGKQ4bVrHd/Ejs4goWSLT16woJtc5jgaji+A5n3rsvcf337p1z5r65Z86VqrbyzLy5Z853z/8ZreQRCggFclFA5xolg4QCQgElYBEmEArkpICAJSehZJhQQMAiPCAUyEkBAUtOQskwoYCARXhAKJCTAgKWnISSYUIBAYvwgFAgJwUELDkJRTVsdG6tDmvVa7XaiDFJA/77OaV0wyhTT7Syf1PGdP5tH61VKzWqpZVuwV9a8MfPdGI2dnZqzfW50xtU+5J1elNAwNKbRqgRHXAMjAAQRnWiLwAQLECegAG1eGdyE/5Z0Tr9cGdnZ319bgxAJY8PCghYPFDVAiRJBidAKrziARxH7tgotQ6HupGm20sAHAskeYgoIGAhIuQTCZIkr4K6NEosPZx2mQHn1urMmUWnBWTSVyggYEEyRFuK6IFLYFwASEjVK+TO9k1fFGmDI6mAxZF+mao1C9MnAgfJ3jdcBtDMi4pW/OAFLAVpVmGQCGgKnvXe4QKWAgQcnbs7Wqvp62C0jxSYFvrQKbFp8h2RgCUHnTJpcj1TuXLMqNYQ8NpB3EZPStzm6HMTsPTgaytNkkS/D8Ma1YKA025FyhxBNgHLIcRhZJsUQo11N6/NnBkrNCmSwQKWAw66A5RjIE3MxUj4YO9rttJUj4la9lWyCFj2sAkApQHR97VI1K4jvwVpagAwZ9cj/WDse20Byy6SjM7dH0kSc1OAsptP0snVmXPLAhhIahUidCiQAcVKFMokRxfytsA71exkGredCiE4FsTwh4MQsPQHKJAZrEG9MR9CtnDTptsr9chmC7cOyhq2qiFkLjdqNVNvp+8b3YD0mlfKBZJImOjBUqJEAUCoFTCcbwAwoBYFn0qfubVHwIN1AQ5y1EWMFZkDwB6/feXcSpE5nMZGDZbMPfzA4xfaFmstpSZZ8e1Z6pYFwLvYhE5vqlvMRn+0YLHMpZPBm56+yBlIHi9SSJCiX+fzC/cueQRNtG7laMECDGXTVyxTUT5tWyRNH02FkNWbgca+J/XThHyyYepFQ18vSrD4YCIb+TapBpCEVxfv58OgV1ZnTo+HzuCU+4sOLFnQ0doplC7i4F2rmTPAusbJntgM/ujAMrZwb43QToGYSDpZFQ+R9fyB+/l9whIDsF+2T4WgcpJ9AY5YKCqwUKpfVU1rp3dsxKOORQMWSvWrY59sj/fD00X1BaW0Y2JRx6IBCzCHrUmZwDIbB6B0aUBFE1ivBd6xISxtQ58fBVheeuvORej+aBMksU8z09HZNLI7v3Af6EJQimDM/Ors2TksgUOeHwVYiIx6lsE4a8PUaoNrBEY/e+nCHixULlPOenmWKrNJ4E4P3oWOkVzswUKiZkSgYhB9VFhLF9ZgyTKKbQAS8cTjGj2/cAccIIl1hCAevqn8rMFyfv7uHNR92K6Rrg9LO+UoYoCHzKpjDVeCcfaMsQULUfr9IrhEpxCMU7mpFJ5D8BgOc4zqswULwaFHlcqxG9UvvXXvAdI7tgwfmcnKfSl6bJgtWNCGfQRG/WG8QWDsszT0WYKFwBVqpYpVJdgEH4t+5dEfG8XP0GcJFrQKFrFU6YIqy6Wzxr7rw04VYwkWrBeMq4FalOuRnjF2qhhPsCDcnzb1/vaVM6eKMhbH8djMZG4fHXZgyeyVhwjmjc5dfBit0OosM7uFHViwBxxzq5+DQAPSxX54XEuwWX142IEFWQ3JTs9GSNj2VFzNC69UIY5gwRR5sfoSYoFi5yMlNauPDzuw4GpX+MUGsIDB2oBg5A9xiVexAwvG3cm5ZsUVNHiwaOj+El4vNRd6sAKLHKwLC/SegzPy+UhrbmCxt3Y5R525xQV6wyDfCGRiJZvqSWZgad/c5VzsBZmyrOiRDwq9R+HsQCVg6U3i8kcgs2WjbHad55RQkXxGeXasvqQYsEiay+GwQYFFKTbueFZgwcQE5P73I8Fir+ZwvbqCTfaxgOUpj7AKoOVRr/KOwUXxRbLkpXOp4zBqGGxUwHLIaaEKwcRmKRUDuX8M2/qIU7Q5N9FyDBRvWIdIrNQwbHUf3CTMJtqcAwO5h2CyIhSjNH1uYKlDUNK5lkXS8w/GD4AF/B+uj0TwXSnnfR4uNYNPAI2K0HhpbcbW586uU+2nn+uwkiyWkJKaQctOSKeJ4pRCxA4syACaeMT2YA3Z/INVVgQ/sCD7G3P6ElLIGIxxzy3Qyw4smCh+xlxsEv+wYMG64uH32UTv2bmO7Qtha1rAm76yOnN6HMtoHOYjVTC4wCAdr8q153nOi51ksS+NUR3sfAlOdlgHGYxkZdyzlCwZWGzSn03+c3z4xAYcCWAlNKqQjmMWN0vJQmC3sPLiuAAGq4LBb7JJze/SjyVY8HYLWC7M9O0igMmkiq04dW2ux5J+LMGSqWKY/mF2iWhjLshYVZt2HK/sYAyWOxNymWgRedIZm7mL1zBSBeaychmzVsM6h75mkyqxd7tHJ12wHrC214ipCstWshCpYkoxKl7qJWcIHCP2J9g6R1iDhSAC3eavGOpcrCSu1QbXkBevsv64sAZLR7rcvwkneLHXV7XH31nfXNxRWY+BQ4SETmzv4mQPFirpwjHI1v1AEHi/OksxV1nZg8WeIbLG5YnQ4ZZFm9l1mDZHuwUyS3fx7heMBCx3LhqTgDpG8rDJSs4KuyxdnIOPT78kZn519uwcCYUDXSQKsBDaLt1jrDxgSIECHjAIQkKzj7FWoHxOsq1owEKRAvNVilc3lT+7SnCWRKJ0/IWTqzPnlkk4MuBFogFLW7ogqyj3nqM1+nd2tqEhQzW+qNkHw4IEkZG9jwrR1P9EBZbMoLVR/QbhBwwMWw2ACft2K0L38B6jPvx3pzrr6MCCrdM4nPDhqiKZfWITSyk/EpYUlbfdigApOrBY4hCldeyjs1XLjEmXQtHfOzEmBWoXOth4EE+xTJY8CjxRgqWjjpFE9g+kbWbLjIMt0yzy5aIau8s2mYA18W7h/RuLwvu1zzqjOqCqrUOWC3X0iy+DPbNUlj1TAkjs24KNZuBDwKPLZBG+jVayWCIRpfHnobeVMCvAZLeomaytaun0ok70BUiCtDaJD0nSfccWpN9PcurYkufwumOiBksHMLhLW4sQe9fYZWC6Wzs7OxtFVTULcKUGACBqNAPIiOMeHKaF68RweJnCU6IHSwcwd0eTRNvqwH49TbBzWsZokECmBQmJn0EFlY2GPwf5aBYYdZAaVmJ0/+nHPtk1oChKRAFLRrEAAFP07MocHz1QLLEFLLtYrk8qWZlM7/JbUcVSjiKQgGUPdYgaNrgwZWhzQA1MASj8c77yEl7AcgClSnIr5z2jfoyL2ut1GMEFLEewIlkFYT/Y3fE3bYGbSbcni3rpHH+uUtMELEccV2b0/wqG/KRSp+q4WfC43dI1/erqb09/5rgE62kCln02CzRv0AOXyo9hhMRnekWZ9KPUPF6sSvlBGdQTsOxyHddq+noJUfAyztXpN76h/6t+WLutvqn/rV5I/qY+N99W/zH1f3yRfuvW9JtLbzgtymhS9GCxqlYGkhIj4eFx0AvJ39XkscU2UA56/mW+87/HaTLz4hsb18LbfTk7ihIs3ZQRAUmHyX408Gf108E/5uK4L9XXPz9mvpx+/vUvlnNNYDQoKrB0XMK1UWgYPovuvMiECb6bbKrpY79RVgUr+gDzLA5Pb00VnVfV8dGAxWO1YFXPvr3v6a+92bZPEE8rNXoqBknDHiyeqwURPNb/qc+CffLuM7+g2siGNunk8OutDaoFQ1uHLVhKKoQK7TwL7edU7a/ql8d+V2hOr8GQPb2sttP54V+3mr3GVu3vLMEiKlc+NrRGvTXufTyQCTB1cnpr0cfa/VqTFVgqrnLZ+hXIyVLtro6pgf9+2o2l4YNBXh74QL08+IGPpbtrbujH6TgXKcMGLMTtSKkZqAVf2g0gtlVNPoLyYtDrEwDFozZA8kTJbQsnqJBs1GqmblI9AsVhtjCsAWuOum7Whxp20F64SJnKg8VPl0VX9mvPAwDo9U66SLICgGjmAQPmFy2QwCU+YkFktH4RDtUGWHvW4lt38e+f+Rnmp4vMrbyUqTRYAlG7OlLDmA/LAkceDu3GlHYB6EAJVJZ0yfZsu3dOPn/5C/iIVO+pLFj6rHa1pUeaqvkyJAcVW7WbCz6VPk/AQxBrKbRFA3Q7eXlrrtCkAAZXDix9VLu6dsctuF5h2bdqVQZvZJ05L8BvTRRJeaHZm1k/Mf1wjGatclapFFg8NbfuRekmdFu5YVWssprl9dqQj79b4Pwg+WhyrPaXl61qVtJTqUBmZcBSNlA6fYvVDS5SpAjzv/325T/8ePBPP6/rh88Umec4tgWR/7EqRP4rAZasiYS9zq3heCC5p9myWiAKG1Ur94sfMPDjd5+FTpdqSSvzPcw6OeZWAjDBg6UsoFiQQBvUpVhbkx7F0B+/9+xEkphZ1WkP6+tp7ah0/PvTrXVfP4BdN2iwlOTxsoHB+dWZM6xSM7CMcdD8T64evwTq6as+QQOAGQsVMMGC5fzCnQmIcl+HQ+sZXHNkDAsSaNa9PcXBs+VIA6dpbdAoZc/GyxMqYIIEi2+gdNr9aABJ2FfbeeFEokU336tDtkBibxPzUo4dImCCA4vnjpBtlStGDxcRRvYts3n1+HX4+BBe6Pr0J0IDTFBg8QmUft/G5YtZQ1j3n1frozWVWG8lucocEmCCAUt2Maq99sGHx2URpMm82Cb+oLV5vV5XO/p9uDbjIvWvQNnyZAhly0GAxWNvYWluTc25PdbzZfyHIGH6DhZfkXlRu0pGya6faxv/CahltHGZFhSSnepnIVnfweLj1uCsubW9LbhddShP+RSwapl5nFi1ms5bplXzxGtbw+W/TecX+woW6FJvvSjU/nqxT/rFTQf87qdXhwAwepRuS/3LVu4bWDx5vuQ6NzquJFuJGjD9qofpC1i8GPTGzK/Onp0jO2FZiJQC1IDph8HfF7AQ2yni8SJla3+LEQOmpQfS4eGpVml2aelgobdT4r6b3R9r+1l589rQTbpYTLn2S6lgIbdTRPXyw9GeV928dhyCl2qC4mfKDFiWBhYPdooY8xTc1qc1KAEDlZanyqi0LA0s5+fvzkFjuFmisxGgEBGyn8t8evX4A5I4TEnxl1LAkuV9WcJQJNotSw1KP1mc7rezwOVDihXLUMdKAcvYwr01+CF0YCpLYRmTyDwFe4WxRpaxbCP92Md7Oox3sGS9qWz6Nvax3QwBKFKwhSVkaPOpamK0NivDrz0c9/V+XsGSNcSz6leD4AWmpE6egIqBLkEVg/EZrPQKFkKjXgz6QJmcaluZ/bKJtms9GvvewEIVUxE7hYodw1+Hyn7xZex7AwtRSovYKeHzOOkOP3n3+Bw09sOGGFonpreGSDcGi3kBSyZVrK2CeyRCj6NfRWdTxF98SBcvYIH8L9siZwJzVlLAhaFeteduvlNvmIHE2i+Yh1y6kIOFKgAJV8mBm/jsOoZaMre6FKBIh6GWLuRgoZAqcMTi/aoun5PsnCi6TypdSMFCJFXAqN8elig9Cc9VehEKY59SupCChSiuIsHHSrM43ebb0mUneYDqEkMYdyEDC4VUsTGV21fOnKIjt6xUdQq0r7vQxjqMnB+qFH4ysNBIFal6dOYIxhM/vXZ8EyNd4CO8PPza1iSWRGRgwWYWi1TBHiXf+fYGMrhMCZWMCw36hrEN+kjAQhOEFKnCl93xb4ZNtIS43dTJ6S3UhVUkYCFQwZrgATslHjA8U3FdgcB2QbuRacCycM9GWxuIgxIPGIJ4sUxF2y5IVQwNFoLiLpEqsXA78j2xRWJYQx8NFnR2sSRLIlkonukEUX2UKoYCS1YJiSrYyaL1zXiOXN4UQ4F+qmIosGBVMJtZvDZzZgxDPJkbFwWwhj5GFUOBhSBpUgz7uHgd/bb9VMWwYMF4wWzCpHUXiwqGZqG4FsCm77sGKJ3BkuWCIQp09MrqzGlvbWviYp+43hZbq+8aoHQGy/mFOxNKJc4Jblqn47evnFuJ65jlbakogDH0XfuLIcCCKh2WmhUqrol0HWTMxcmFjAGLs70iXrBIOZzwtbHJlS52ixNY0ImTEogkZJs4l8J6xVzsFiewYG/vEnslTganfmtMyyQXu8UVLPY6bnstt8sj9ooL1WTOPgog7ZYNaMRXqCrXESz3oRDHXHQ7P3EZu9FNZu2lANJuKWzkO4IFkZIv9opwPREFsHZLUSPfFSxgH7k9Yq+40U1mHUwBsFvszWFON8oVNfILgwXrCZMsY2F7Sgpgyo1NquZPXt6ay7ufwmBBZhq34EIi8u7meV9WxvGjAMbIL+oRKwwWjNtYOrjwY9Z+vxHOyDfrJ6Yf5i4RcQELpkP+MkgWdP+mfh+Q/H44FEAmVRbyiBUGC7I/mDT8DofPWOwE6xGDWEtuDOQe2KUsqGHOOWHiCWPBn0G9BBYseiAdGp5qtfK8VKlggau5odhLrubOczAyJj8FMO7jIn2QXcDi7NcWt3F+BpCR+SmAyRGDD/j485e/yFVX5QIW54CkgCU/A8jI/BTAxFpCBsuQtGjNzwQyMh8FNq8N3TRGO+UqFrnsqJBkwdbdg9u40O/lI5WMip0CmAYWRVJeCjEvEiwSvY+dqz29f6BguT8C92S43m/fBMky7IlesmzEFMCkvBTJDysoWe6OJoleczkXSXVxoZrMyUOBQMGyVk+SQes6dnik6MuBaDIlBwUw+WG+vWGuEXxJdclx8DKkOAUwUfwiBWCF1DD7Gq79jSXVpTgTyIz8FHBsuuc3kTK7ZqKgKiYqWP5jl5EuFHBRxYrEWOyeCksWO6lgAZh0c3E5fZlTmAJFgpMuV084gSVTx2wrJNsS6dDHdp40qZ6S5MnC5y4THCmQxzMGTL+oBtL5vNnG3a04g8Uu0KnHV7PQFmkU/rfbNKAFqG0ao25ALtiypLc4nrpMc6bA5nv1EaM1fMi15cvuA2n4ZiNNk6W8iZN7N4ACy+7FrC2j1LGGUo+aAhDnc5aJxBTYfKfeUDVVH369tYFdmgws2I3IfKFA6BQQsIR+QrK/YCggYAnmKGQjoVNAwBL6Ccn+gqGAgCWYo5CNhE4BAUvoJyT7C4YC/wdrQV9fn2+twAAAAABJRU5ErkJggg==;" vertex="1" parent="1">
          <mxGeometry x="-411.5" y="-10" width="101.5" height="99.99" as="geometry" />
        </mxCell>
        <mxCell id="59596a_35e80KVfduihG-19" value="&lt;div align=&quot;left&quot;&gt;&lt;b&gt;&lt;font face=&quot;Times New Roman&quot;&gt;Requirements:&lt;/font&gt;&lt;/b&gt;&lt;/div&gt;&lt;div align=&quot;left&quot;&gt;&lt;b&gt;&lt;font face=&quot;Times New Roman&quot;&gt;1. Low latency &lt;br&gt;&lt;/font&gt;&lt;/b&gt;&lt;/div&gt;&lt;div align=&quot;left&quot;&gt;&lt;b&gt;&lt;font face=&quot;Times New Roman&quot;&gt;2. Low energy consumption &lt;br&gt;&lt;/font&gt;&lt;/b&gt;&lt;/div&gt;&lt;div align=&quot;left&quot;&gt;&lt;b&gt;&lt;font face=&quot;Times New Roman&quot;&gt;3. Low server cost&lt;br&gt;&lt;/font&gt;&lt;/b&gt;&lt;/div&gt;" style="text;html=1;strokeColor=none;fillColor=none;align=left;verticalAlign=middle;whiteSpace=wrap;rounded=0;fontSize=21;" vertex="1" parent="1">
          <mxGeometry x="50" y="-81.55" width="260" height="100" as="geometry" />
        </mxCell>
        <mxCell id="59596a_35e80KVfduihG-24" value="&lt;font color=&quot;#000033&quot;&gt;Task&lt;/font&gt;" style="rounded=1;whiteSpace=wrap;html=1;strokeColor=#6c8ebf;strokeWidth=1;fontFamily=Times New Roman;fontSize=21;fillColor=#dae8fc;" vertex="1" parent="1">
          <mxGeometry x="-79.56" y="124.99" width="180" height="70" as="geometry" />
        </mxCell>
        <mxCell id="59596a_35e80KVfduihG-25" value="&lt;font color=&quot;#000033&quot;&gt;Multiple subtasks&lt;br&gt;&lt;/font&gt;" style="text;html=1;strokeColor=none;fillColor=none;align=center;verticalAlign=middle;whiteSpace=wrap;rounded=0;strokeWidth=1;fontFamily=Times New Roman;fontSize=21;fontColor=#FF8000;" vertex="1" parent="1">
          <mxGeometry x="355.44" y="180" width="155" height="30" as="geometry" />
        </mxCell>
        <mxCell id="59596a_35e80KVfduihG-29" value="" style="shape=image;verticalLabelPosition=bottom;labelBackgroundColor=default;verticalAlign=top;aspect=fixed;imageAspect=0;image=data:image/png,iVBORw0KGgoAAAANSUhEUgAAAMgAAADICAYAAACtWK6eAAAgAElEQVR4Xu1dS6xcRXquvtcGpIHYA9IYiITtURiINBG2lAgGP/BdTfAGWwpkaZssZpMMeBXFLGgvIMpq7GQ2bMAsgUjYG8isuH4CShQuSjSBQRouSAE8EpNLIJINvu7U1911fbpvn1Pf/1fVeXSfIyEbd516/PV//7vqdEz7JKfAvu5bm781N20zZnUHBusYs9kN2jO9zR0zvykzicxvq58M/r2z3DNmZd50Vq6bOfvftyvvdBeWk0+8HQB71T6hFHAA6JnVbXPGWCDMbTWmBzCA2e3/3wBE6Fjr3+8sd0xv6bq5/n7PdJYs2JYvdXctxR9nNntsAaLYdwDimtmwwzLlvo6Zeyw9CBSTtFonC5ybzeriYndhRdPTLL/TAoTYfQDiqpm3YOjtqC8giIUYs2jNNatlemcudPfYv7ePjwItQHIotLt7fp81Wax26O2zTfq+w7Q9dvNPwzQzZsPp1iybvLstQDJ0ebh70QLh2oGhlphKUBSA3JpfnVOtdhml0MwD5KHuW9axnjs8o6DIw8tSz1w/Y7XLqVmPls0kQJxPMWc6z9bTwa6PMTcww3pnLnX3nqrPrMqbyUwBZBCOnXvahkIPWd9iW3lk5ke69ZYN5psr1/gXSm3ZObFqvjs5S1plJgACYHxnNlpt0Tts+WktEZeat8Dsd22+2dy5+ZbBn5sGf+Lf8eDP226ZH/n/7JwAFPz39ZXV/p8OOPj/L1aumM+/umL/vGreW/4q9VJG+odWuWauHZ0FoEw1QOB0W6cT2iIpMMDoO7dtWgPBvXd+bw0YZXEuAPPRF/9nPreA+ejyN6UAZxaAMpUASQ0MAAIg2Ll1k9lz/x0jWqEsQLDjnP/gyz5w3vvkq2SaBkCx8zk5jbmVqQJIKlOqSYDwAScxYBatQ3/y7e5eAGYqnqkByE+65w7YcO0vYjnfDhRPPHh333xyfsNU7HpmEa++85k5/+GXkbVL55R15o9Pg4/SeIAMMt7GAiNOthtg2HPfHWb/jh9MLSgmgbxvhlln/9V3P+sHAOI8vaMXu3tPxOmrml4aC5CY5hT8CYAC/gT+PusPzLBzVqu8ufS7GKSwSce5I00tZWkkQB7unrOZ7w60RlDIFtriyUfu6ZtQ7TOZAjDB4miVzomL3d1Hm0bnRgFkqDXgZyBsq34AiJ//9IetthBQMBJQVuwBsaNNyso3BiDD6tqXtE64c7rLBgaSe/3cxBeD3MQ3V5H4Q9JvNPnnEoLgWSQP8WDON/4b/NtdNtl4p0023mWTj1VovjhA6Zyy2uSIAJ+VNa09QEJ9DZfEgymV0r8Ag8PRxX9f2Aw3HF4Ao4yyEfhOt1pQATwATRnAecP6Jy+e/TTEoW+Eb1JrgAxP7r1ko1QHNCIkpSnlAAEgIExaFhhYOmDtLviQEjAAyj/+6rdqQWBNLuvA17cQsrYAGYZvX9c44tAa0BhPPHQ3y09UO4ChroDwLaAfodtis/+JNMxzZ34TEPWqrwNfS4A83D3bteczUIouegAMJPYAjFiJPeQEICWhJWA+TcODgkkABrRCIWWsB/R53gJFSaelVXPtYN2Si7UCSEiUKqY5BfPpnM0FvGaTZsrNjsVzyftxidGY2haOPMwuzWNLVQ7WqVSlNgDR+hsxzSmYT2+8f9mc/+D3aptawxR1eQdaZf8DP+hrl9AHQuakBYku2VifDHwtADLQHBvgb+yTbAyk3zOP3RtsJgAYkHjTri1Y2oKuj1qg7N+xhX0lt51em9QDJJUDZFiabsEhO+EHkwCOeIiv0QKjmP8RBXvc+imhQIHg+btX/kscErbn4o9f6j7SDUZpQAeVAkQTqQIgoDVCzIAWGDKOiQUUTaQLZ03sOZODshnHa10ZQDT1VKEmVQuMMMYBUI499qOghKvS5Fq82N2zEDZ73duVAESjOVxeQ2NSwWFE1hfh2jIy27qtaM5bMG9RsqN9lCZXJSApHSADn+P6W5a4VCUuAIHNwPkMzQOtgdg8Mt3tE48Cg33ZrvZPIKj+5uX/kAZGlqwm2RlvFf6eSgWIBhxafwNSCloDZxvaJx0FYHb9/V/+sTqSCJAIb2UpVZOUBhBptCrEGYedC3C05lQ6YIz3DC2vTTbKnffyqoFLAQiu95w3G61ZxYVyUf7wy0M/FkulsORUecw0rSMhiAJtovETkYeCYOOfcvIkyQEyTALC56Aug9aq7NbX4FkrZUuA458O/Ykq0vXi4qd9zc8+ZVQCJwWItHwE4ABxpRKoNalYliqvndbkQqQRQRX2sQy8kPI+rqQA2dW9gOOxTzOL1YCjNakYylbXRmtyIbCCzDv72Eshdqa6FCIZQHZ1z1lg9C9W8D4anwPgABGFERDvXNoGcSmgEXyYgTChuLLRXNue4hNzSQAiCedqbFaEcI+98us2txGXl5P1ptljTEYY3UoS/o0OEIlTDsIh6iE5EtqCIxkfJ+1YCxJYCXwuK35kKzpAbBnJ68wZck2eA+YUCNbmN5LyctLOEYSRCERMRpJMjO2PRAUI63dowPHG0mV7ZuPjFhxJ2beczo/ZamxJCb2wLGXFlqN8P9ZKogFEUoCIwsMn991Dr6EFB02qxjTUgOTwC0vUmZKYJfJRADI8S/4ekyl/1BYdPmNLptkHPgdUbGtWsRRrTjupuQUTG7zAPLHOtkcBCJvvQDj31M920InAFhwMKzS7zUs/2ynKukuy7TH8kWCADE0rlJIUPtKIFa7bgbRoy9R9lG3275rolsBpDy6PDwKI5LIFSemB0ClrNoe0s+9bFP/81J/SlgX4g/VHQk2tIICwF7xJ/I42Qz6biMFldjC32Do8gT8SFNVSA2RQwr7BOubFJwOlfocsMTSbzDStq0Z+BI47+/Al8vqrTdUAYROCkkiFsP6GpWPbrkEUkJjiWBbrj9hrTbdrrjVVAWR4I4n9VkfxIznc30asfNScnd8lkS0Ec/7i5L8xxFHVaokBMnTMP/aZVhLHq3XKmf2dnTYS3gFVWFNL47CLAcI65hJVyS5wdlikXanEHxFEtcQOuwggrPaQLK71O1ow5FFAUo7CH7KSVfyKAMJoD0niB/Yj4tltGUkLkjwKID/CfsOEjICKtAgNEFZ7SAoRyQW13DPDFJBYIxC0f/4P73ipJbnsgQYIoz0kOQ9eJXrXO9IARzzdt89d0kl4Mk024Ay2Bl333H+7+StblY09d99rfO7MR1S1rZRkOFTHXlZO1mrRWoQCSGztkSpqVfRJBISRj7yAvGb7hFDAd5YnhTDCmP/ytw9R02YddlaLUACJrT1IlFMEcY1QzvKUvd2vqFShjZaJSDqxMZPbSmE6S8qVOP7qLNtvtW/3UcQLkNjaI4Vjzt6cAemCpFIbFPCxRf7vkORMvRS0dewvdrEJRNYXYfIiXoAwx2gliR22NIDdQonfgz7hxLUAYam7vt2FZ3dTL7OmDtXZsBEEIUDCPJwWMd5yeAIg53HWY1/RpNjIVWzHXHrGpAUIw1rFbViAoJcUfh+bG2G1iK9GqxAgw/utCj3bKrUHC0y35YIS6XBOmtIeWDPHLT92Ihhl8a899WcUdTmfs/imeA9AznY7Zu7ZGNojNnNqrrWMbd5RuzRljWDSInkneWLTnQ37klqkMOSbCxDGOa9Ke0iy9akkmYRBpq2tpM4OaycZlSaTxBdhws5FId9cgPyke+7AnOng2+W5D5I3QLPvia09mFBjdk5tKb1vh+S/S00thlEls2DH58CZb2blAoQ5EMWquphxcYnWctKLPb+c3SBIqT333dHP4CI0jcsjXn33sySZYgljhLYF/Z6w3z6HiQrm0a6rrH3IW69EiyC0jz0seHLNrIkAYZxz1haNHcmQOOZgAJQ/8He7DkhYlHSMLQlDGV7yfux1SeqkME/ptz98a2O1CDNunpmVA5B4zjkXSfCRYvC7VGppxvY5/yni+9zqw1ox+SKNM82a2SHaPG/lbHadMbPybmOcCBB7EZw9MVj8PUGmDDl25lqiPTQ5F4aJUkjCMNbn3mZopwU/a2pjpmQCj1qURGAymn9STmQdQBjzilWtGibNowyIgVsZ2bMBUmkoSToyEona4RIbsUwsOOO9NnvW3HZahClJZ0nDJg45Xlx/mGodQJjSEjbMF9M5l6hyjhijW8CuCW/F9qtYZghpx9rrGENDv2P2vuX9tmCUeRhpzvSDNqywRlufsz7JzFoHEF/0ilVrsc0rVgKCENJCOQmRtQzEbniqdhIBoKGhRItoAFhEF8bcx/uET7oumjVBgxT7H6wkj1liwIISRGAiFuPEloAP70rNN4bpwWAIXbrQqycsyXQ50kbCwFotyWqR2MKTBT8DzHE/ZAQgzEXUjLMXm4lYUGokn1R7xAI+QO9OPqK+aFIJOTYUeQpIvhgPy0huLKkmlhxsimlmScb1V3OP+iEjAGEORjE3Jca20VkJrxmX7dtJ1dBvlThgwF5nzlVgXEjckxYkb9pviIc+zP65MTT0ZM0dRppL1sqO69P+437ICEB2dYtL21mkxpKyjkDs4qXjSrKx2hBodpPZg115jAGzC4GPkINI0migz7EdnyurpWJHAtlxiTDziB+yBpBhceL/FKGWNXViRq8ktrN0XNZcBE1CTYJQcLh9iXGeX2JWSoUOK0SxHin4YvAmA8ysH7IGEKY4kXXCHj/5r9E+fMOCkln4OIFZcyO02DIWOLIgCT06zIZ9NXRlNX6o0MnupwSYEj9kDSCM/8EsXGO3FkkGtnJXatNKCCrVTOMbJ/k4DGt3axJ64+Yee3xVKulZQUqEXVly9NuxAs8HzKwfsgYQX/6DtdelKtlHAdYM8i16fBxWM4UCnp2/jw6Tfg8BLvpjBB7aSRmZpS3hD4jIwtKaSAWs+SFrAPHVX7GFYaGbNk4RVhpJx2X7DQG8JH8j4oRh41Atwjq2Uu3M+jjSfn00YoHJmI0bzbXvL3YXVvoAYRx0lph++863zNHf2TCsL3w3PirbrxR42XFYiSajyGjrkPmxDCX1wdjASmyASASSj0/dF3L7AGEKFBmGCjVHJjEK60xK7WTWXpX2m10DQ7MQcODdECZj/TCppmL7TcEv7L76k6CDhOEQIOcOd0yn8ItRjL36xtJl87w9oBTzYcbFeLuPXxANm6rf7CTYMUQTH2scAhB0xVwEx5gk42tgrgfS9OujFWvp+Pyqnrl+/FL3EXtpiX2s//ELe/7j6aLBmQWH2Ot5YzPjSiUcyxiafrPrYObu23Df76FMxmpoqQBigKcRbD56sFFPX4DARbL6AIkVwQqxhyctnFXVGiZhmFfTr1sHG/XzbTjzu5R5s32yAPHZ7OPzTNWvjx6sX0Vo3v6ti06DFJ4gZCNYMROEjhCMJNIwcqp+3bxZcPs2nPldyrwaM1AKQta8lPbrowdLd8I66Id6O0wEi1VbsRcLYrCEljJJagnHbpRvw32/hzq6jCYlmGndNFP166MHaz4zQhWh3k6dI1hYbLyoxChpU/WrMV+YTc9rQ5gKud2z4VgpCFP1y9KJFX6+CKU1rxY6zBkQZsCQjSpaOJvQk+ZBYkU7iubOjsFu/KR2IYER1jIgMs8jU2P9L2m/LJ1Yuvt5pneUAghj5oRsVAwm84Xtxsdgk3jSJFl2HNZhZDd+Ujv/Juf3zuZppHvL+qzSflk6sXvr5xkLkIe7/hwI49D6wmbs4rSM7F/saM9sOQTe8qniorUx2ldLmxCtLck6S6OTrGZKxTPs+D6eQS6kw9xiwjhcvsG0TMBKYY0jyWhGzDtE0kmAKKFR6LkQVspqzo+zmklaYMrSh9VgPoD2AcKUuTMASbVY1uHTSHrWvwk9TcgyDMsAoaCVaA+plpL0LdVMLH1YoeoXfJ0TVoMUZ9FZBk21WBCFlfRSLcYSEnOQMkp2MzWfayhiBji3WCuAq3lY7YG+pfvK0pQJs2rWhnfYOfiDBJ1TAIitweodzpsMG5GQElKyeFbSS5lYmqsI1ZJsaLmINpB6L579VA0O1vzAHDSak9WW0r2S8Atr1vrmgHITRLFe7xlzIBQgIdEU3+JZiaCRShJpinmGrjMEJH6ToJiS0qO/Pht90mistk8pUFmhTgHEd5MJi0Z/+bAPBvm/SyS9VMpLb/nQSNXsykIAomFYN7bUzNM45xJBpvlmC8tB7HcMiRD+ojWxzuMjnTvyBmcXnaIOKzsnVnVrtIjE7AjxR1jJlrcXmrW5vqSaUgNGNqTtk9wsEPLasQKVqBBYAkAKP/NcF4BImFiqRUBo1jRwmyKt/cJ7UiadxAAaTc1+1sGNh5A5JLwkCCDZHw34JKBhNYg/NdBZjgYQzcZJFs1KBedcSq/YZ01JN2eNLyIF4ST6+CMv69+Sai6pfyA1U0MSrwzPsAChNIjPSWcZR8MwzGI1Zhbe0UgpiRSUCgRWE/toojGzJADR0E2iGVObV6Afu17SB4kT5i0DIGxOxmkRjSPIhJQ1DizTrw8c7nepCclKeE2UTJIYxPzL4BNWqBNghZNe/0RhlnEkjEZIiIk86Ys0SROSUibyAYXY2HVd+LSj5lPZWNczj93bT8wxj2beTL/jbViA+M3VQaKw8Dw6a/tLpZpm4XiHnY/rX7MpeRsPzeGy2JL5xzKvsmNq7Pg84QJBgq8BS79JwpaVO40O7RFy8TZLc5befo0ZESBSqcoudlI7iRbB+1rwQuretWnwYRt8p+PN9y+rNpgNUYNB2W8waumNtTz6wJa1Ty+c//BL8WeyQVO2Ytbtn58ZQzhi9F2ftuTnZGuxYhUrapw7LUmkWqQs23fSeiTmFWgIBmZMFn+IUktd/3u+T2WP9xCaXPXPaLQFC14fz9LVvFWeB8kjjiRy4lS8xmmXbs54e3az8B7Mpp3b/sDa9T+ihtWYWVTHBY2kORV05WPE0Dlpae7XwvbAFPPZAwYgGls/lDBs5taNo3XaQ+bpc/hd345+Eu1YNuNhrqy56Nalcf5D6C2Zo8/07pneEerILbPJmvh8KCEk5osbq4wwoxuLjcejfTY5x/pYZdOcjQ659Yce6tLyB8Ov4zSfNNZ10ztIXfvDRitSXPvjI5J00/xq1Tci/ztrBo7nVdgoDGYiTVjys1/fUmIuYk2IjEEzlv2wFQs+E7UPEEze1mPh02ub8xbCbnTqgsW8+UkYqsxoCrtRk8xT9l1/LD8ee7J8gBHLFETZFbJlJoz2xafYHECiVPSWab6MbztrlkjrjLTsJQHtpDmxWpvZaO0axt9j11SmEBqfI2tR+OuwOssXu7vXAFJY0cs6jlVJDUckn+1ZpsPIAjYvXMvSHGv3OZuxAIJ+fIERBEIAeEklcMz5sWYgoXkX7dWjC1Fvd68ikpUlbtGhIGwYNg4bmPqRBA+KIlGsmVUm3RHm/eWhH09MaFYNDuzrMVv6sn/HFu8W+7Vc54TVIEejfh+kijDqJEpAiuy57461DDgY6NV3PytNqrGmCOZe5GSz0hD9+BxOL8cIG8AEhDkDm99VGUAqV6U53PTZMLTP1EaI91J376k+QJhciM98QT9l2sPC/Sy1ObtJPjtYYmZVbd6WSuCCwVit6xMoiGC93d17Ovo3Cqt01OuwSbHMK6lErLL0pA50xxwkeSffiVBEsN7pLixnvnJbHOplzYYqsrt12SDMI7ZZxBbeVWFm1YnuEtr7NLfta+JnoAvvx2LV/aybWYwpis1kHWuW7uhz1oUTa9r6HXTT/7oUaLqmQZiqXl+Iz0kUn/qqm+SJNR+Jivc5idk5sSHjWRZOEtPWT/tBBGsEIMyXptjkVZlx+VjMHaMfSaYZvhob8UG0CLRnnjJLT5j5lNWGTRAyx6Wdgz4CEPyPr+Sk9UOKt5uNoKRkGiIBlnL4yvpmhROTinAO+iSARMmoz6KqZ4VHag6aRdqDpqzvR/hpa/7HOoAwfgg7kaoKF1MzYF7/rINYxvxmzcSN6/vd8D/WAYRJGLKq7I2ly+Z5W+48C4/EQSyDHmyErIy5lDEGy5NS/2MdQBg/hEXrLKn6uphXWWb0ZYrLYNyyxmB9P0JwrNhPP29f7C6suLmvhXndP/huWkQ7dkKzourrZF65fZyV0hM2egW6+MK7+B7Ihe6eg1lgrwMI81FPNtw7C2aW5LbHsiQqxpmV0hOWFxnzCreYXOo+0i0ECJMPYbO7s2BmSUpLygQIxpp2M4u9UhW0ILLnJhvezTWxBn5I8X29rZl1g9XZqB7qf2LdKrjfXmjHPAxTMP3UtY3E9yOKaEfCu4UAYaJZbBHdNKt6NmDB2L8SJmxLTwbUkggnVBgUPZPMK7Rf54O4TnxZddbMis0cEkZK3TZmeFEy18iSUzJ0bdpKnHMiObhizaudKG8fX2ABQIovtUZHrCQjyotrQ3jJRNhoHhFelAzbb8uOPa2lJ6z2AK18vtik6FWhiYUfbbh3n/36LUpPch8JiqetiE4ixX3hRTE67AuS6I30a1ua+ZT5joTvGOGULU6kNQgaWmf9Y/sN9W1Fi2cl2bRpETb3kcoHk5i405aPYmkPvvULp87yRvPdzmxyMMvvuSbWECCF3w5BG9ZZR9tp0SKS0hLC/lULX1Y4MVJUPYmSX5QERhihnOece00sNGByImg3axslMa9SCgVJDsZnh5fM5+rh2Gt9MACjOXtmbuel7q6lvAkVapChFik8ijuLWoRV8YwEU3OKfVFiZk1D6YnkuyTkp6z7l8MV7YEXILG1SCqbPITRJO9KSkuw1n9f/l9J9+K2e++/fe1rUUUvN53uWJskcsVojyLnnDKxXCMmsy7xRZoszdjch5jTS3ihyWaWxJyMpT2wJV4NgkYPdd/aNm822IhW/iOpi0GNFmxz3MjXtEcixeq2tqaWnkiCIqA5I4AZ7UEDBA2ZMniJdG1iZEUSQakbODCfphaPsjkfrJHUHhPrribtGaVB8OLD3Ys7OuZ6cUGLbcdGtNAnUUBWKz6TCIBaTTwzmabRXJIUxDIZ38Pdu8vsEQ0QdGbrswq/I4I2kgU1zXGUgJ8hfhVtmlR6AtMKEUPwFPOQVgmtPUQmFhozVb5ox4ZB0bYph6okuQ9mM6tq0yQzS6Kx2e8hSrSHGCB4gfFFJPF59OkvB6iKnW6MKwF99bMtngFjhlS9BqlAIisWRNpDBRA2LyIJy9U9qiWNolTNXL7xSVPE102y3/HNEVxzC7ozD+mYG6n2UAEELzH3Z6Ede5cv2qbOOjOEzmsjkWaSK0VD5jTpXXw06Ml991Dd1jUnAlA8Y78SBZqzD2OBFJW0F40jctJdRwMtstE67MWVvhKHHX3XNU7PmldVg1xi2jK5ApZBY7aT+B0Yl9SGK7bmaqGo5ipvDSqAoDPWYZfEsNEvIw1iboivL0lpCWkH+4YM+p09xFbHCKKk1gpE4h3z9beVsERWAwQDMA472klMLXbR7AJD27ESDfM+/MJSP1FV5SMp+amTmYUkLKoUWL9DIEyX7GVwC3nnPXx7FQQQpgQFE5BIYScZ6lKKwoKbVPW+/Qj+XWJm1cWklZQpOQKxc7cMvmAvg1vUEjYIIBjUFjJ6D1WhncTRRXs2MqFdOPOepLSkTqYha2bVISciTQZi3/jv3Y9eRM3s+XibYIAMQOLPsKMdu3FuklU7vRLzCuYK+0EczUZJ3pEER6osPdFErAQm+Lp7diU0dG2jAITNjWBQ1mRxE2Q+eKJZOPMOW1rCqntmzFht2LlXVXoCcPz8p9vN/h1bREtmNbUm5zFpIlEAgo7ZqJbUH0HfVdj3EpOwSimcx11s9LAqM4udX3Z9vCAKN62iahDXGXOwCm0lJoDru2yQNCX3kQcQibNeZukJ5gXTFZUWkgf7/5z93gxhxgZFrcbnFE2D3AAJ549IJHQV5hZrotQh95HHaOwayhI+WrOKd8qNOiGYR8PoAGFDv5iQpF7LLaAsx/3Cs7spAVenXML4hFn6lgEQjUOO9QjAYdhTgtTGDhtFB4jEH0FbaWRLSjQJMbJtGelbZQCBWRdrZqV21LXgQKj/r1/+TzL5Gs/vyNI2CUAwAOuPaEEiCPcxvLSuDRPiZSMqqglEeokRQCmDDMglwZ9DcEbyCPd30WbLD2qz5UXzSgaQAUjOF35WOjsxzWUIICKYFJI8xVMUkk4tdWOtx6dF+MiQfEYIxqAyVwMOOOQw/YgnSr4jb5ykABmCxHtMF+2wkQAJJI70SeUoD5zKH9pY/Y0P1gCUYKpX3/2MiahIl5Kk/SQpDvMFa8BaUjwuUiWprcI8QF8JOKzfceTt7t7TKdaAPpMDZJhEhCbZwSxCo0nQr8SZY+aRbYNNhjQEU+GqIiLUKB2ilPaQ5DiMhPmnWofW36gjOEoBCAYZRragSTYznMDmIMb7Sm1yMXOf5TZak0oBDtXpQM3eJNcgblLstUGuvSbT6t5NZXJpCDwr72hNKtBHFq3CG72jF7t7T5RB29IAgsUwH+XJLpqJJOURCSbX82d+E+3DmWVsRhPHgNaAMNP4jlgv9gmBFv4cTZpwbh7tSwWIBiSSA0CTFpkyStNEho41Z1cyggCG1BF3c0D0EeDgfbpywYF5lg4QDUg0tVtZRsAGnPzVb82bS7+LxR8z3U+Ir+EIJ6itGr5SPjgqA4gGJFDhSHppVblT58de+XUjL82uAyJBe5i9khtHxucNYfXi2U+F4eXOCfuZtOMpEoE+ulaiQdykho47QsBUdAvvhTjvblyYXa+9+98tUHzcMfwdoeHHH/zDfj5Ia045AQVwkAnANc1RFTgq1SBubwYh4I0WJMVXCGX3MtQvcX3h2tOX7IY18TMMJG8HNYPGePSBLcHAwCTk/gbeKi9alUeoSjWIm5Q0mYj3YphcWXsY90S1QBlQBD4GLqEL1RjoS2dSoWy9d/RSd++pIIRHeLkWAME6NCDBezFMrixQUH6RqrYrwn4l6wKmE4TOEw/eHeRjZCeIEC4Ej5CeK6nLRyRErHBvPScAAARQSURBVA1A3KQlVcDuHW3FaB6hIPVQjDgLfgq0xc6tVmPYqz5DAiBZWjqtARryIVz00Fnumc5BzQ2IEqaXtK0dQDD5Xd1zT1ti2euEZA97QEjSK6Qf/mtScaJvfdAWMJ/gX8QChRsTtILWgPYQPkurtmT9ne7CsvC9pM1rCRCseBDh6r0ucd7x3qQK3FgURPQFG3/+w8GfTXoABOdb4O8h0ahJ61b6GsOuqgvj+vawtgAJMbnwboxklo94AMx7nww0TN0A4wDxR1u+Z/Za8yk2IBxtAIxzH/y+rzVk5lS/h9o443l7XXuAhJhceDeF2ZUnQR1QPv/qiq0tuip1Tn14nPg7GB95ClfKDkDce+et0U2nSYMHmFPobtGaVEfqZlKNr7MRAAkxudyCARREaKSn21Rcm3kJRXjQLgghf2GB87WVuAAPHkhcJ3WzIWYn7W+7Zb4v+d1/eKcPhk239AHgwJFKO+StPRAYK9ZsPr7RrJ6qIjMu3c/GACRjclF3AecRoiqgSDembu0BZBe2DTAnaxXCZWjcOIDc0CbXX7J/p04pTiJECxSGPQZaLgIwGmNSNdbEmrSd2nBwti/E/2F6sZ8a5tiq+a3c2fsIEbslm/g7nvLceEpqN1KDZAky/BwczK7DIYRKmRsImVeZ72a1RYQz643yNfLo3HiAuIVp8yaTCOOyyzDDynaAywSEGwtONzSFPPM9ebaWqU5fM9eO1j1CxdB6agByw4lHFn7uKWmCMY9YMMFQigHQxM46MxuUoo3TFA4YAU73+PQW7ccybZHhrqUU866iz6kDSCqgoF9okz33327u3XJrlErXsjZ8HBARzKfxqVtA9F5uSuhWQvepBUhKoLi+HWB2bt3c1y510TAOENmyGEWWm+GjRQuMM9MIDLf4qQdIGUDJchISkQBKNqHnMt0Mx7Ft3OVv7jI7JCFhMiXQDpOmtGgZ53jIxzHZdVbdbmYA4giNL2HNm86hnjEHyiY+wDOaHZ/vT+E2ZMtv3tD/uwsK9LPsV6/1M+/fXFldy7jj378e/n8irZBHFhuVMkvT5mP4eGDmAOIIMggPzx+O6dD7iN3Q3y0wOqfsOY2Xp8n5ZvdiZgGSJdDgQrvOodBcCkv0BrRbsYyxeN3MHb/JfLvchJqpVDRtATJG2WF2/jH7z/tSEb2m/Q5NqN7LN5nV07MMiuz+tAAp4NbBl3vnHrGaBWBR133VFBCYVh8U0x6JCqF/CxCSevBZvjXzBzoDwMDBp+/yIocoo9lQS1w/a8yG07NuPjEEbwHCUGlCm4Hf0rNaZW6rBQy0Sx1NshYQyv11r7UACSRg9nVomatmft+cMdtKBA5AsGw3EjeCLBtz/ZOO6SzZWqhl+1XAldaXCNvgFiBh9KPfxg2Sc+amzT2zasHTvzXcmmiD2yQ7Zn6rvaDC/mY2238Hw9sPxHTwZ//vg/9f/coy/vA3/Pv8Umsi0eRXN/x/hGzEwafXnVgAAAAASUVORK5CYII=;" vertex="1" parent="1">
          <mxGeometry x="260" y="-635" width="60" height="60" as="geometry" />
        </mxCell>
        <mxCell id="59596a_35e80KVfduihG-35" value="" style="shape=image;verticalLabelPosition=bottom;labelBackgroundColor=default;verticalAlign=top;aspect=fixed;imageAspect=0;image=data:image/png,iVBORw0KGgoAAAANSUhEUgAAAMgAAADICAYAAACtWK6eAAAgAElEQVR4Xu1dS6xcRXquvtcGpIHYA9IYiITtURiINBG2lAgGP/BdTfAGWwpkaZssZpMMeBXFLGgvIMpq7GQ2bMAsgUjYG8isuH4CShQuSjSBQRouSAE8EpNLIJINvu7U1911fbpvn1Pf/1fVeXSfIyEbd516/PV//7vqdEz7JKfAvu5bm781N20zZnUHBusYs9kN2jO9zR0zvykzicxvq58M/r2z3DNmZd50Vq6bOfvftyvvdBeWk0+8HQB71T6hFHAA6JnVbXPGWCDMbTWmBzCA2e3/3wBE6Fjr3+8sd0xv6bq5/n7PdJYs2JYvdXctxR9nNntsAaLYdwDimtmwwzLlvo6Zeyw9CBSTtFonC5ybzeriYndhRdPTLL/TAoTYfQDiqpm3YOjtqC8giIUYs2jNNatlemcudPfYv7ePjwItQHIotLt7fp81Wax26O2zTfq+w7Q9dvNPwzQzZsPp1iybvLstQDJ0ebh70QLh2oGhlphKUBSA3JpfnVOtdhml0MwD5KHuW9axnjs8o6DIw8tSz1w/Y7XLqVmPls0kQJxPMWc6z9bTwa6PMTcww3pnLnX3nqrPrMqbyUwBZBCOnXvahkIPWd9iW3lk5ke69ZYN5psr1/gXSm3ZObFqvjs5S1plJgACYHxnNlpt0Tts+WktEZeat8Dsd22+2dy5+ZbBn5sGf+Lf8eDP226ZH/n/7JwAFPz39ZXV/p8OOPj/L1aumM+/umL/vGreW/4q9VJG+odWuWauHZ0FoEw1QOB0W6cT2iIpMMDoO7dtWgPBvXd+bw0YZXEuAPPRF/9nPreA+ejyN6UAZxaAMpUASQ0MAAIg2Ll1k9lz/x0jWqEsQLDjnP/gyz5w3vvkq2SaBkCx8zk5jbmVqQJIKlOqSYDwAScxYBatQ3/y7e5eAGYqnqkByE+65w7YcO0vYjnfDhRPPHh333xyfsNU7HpmEa++85k5/+GXkbVL55R15o9Pg4/SeIAMMt7GAiNOthtg2HPfHWb/jh9MLSgmgbxvhlln/9V3P+sHAOI8vaMXu3tPxOmrml4aC5CY5hT8CYAC/gT+PusPzLBzVqu8ufS7GKSwSce5I00tZWkkQB7unrOZ7w60RlDIFtriyUfu6ZtQ7TOZAjDB4miVzomL3d1Hm0bnRgFkqDXgZyBsq34AiJ//9IetthBQMBJQVuwBsaNNyso3BiDD6tqXtE64c7rLBgaSe/3cxBeD3MQ3V5H4Q9JvNPnnEoLgWSQP8WDON/4b/NtdNtl4p0023mWTj1VovjhA6Zyy2uSIAJ+VNa09QEJ9DZfEgymV0r8Ag8PRxX9f2Aw3HF4Ao4yyEfhOt1pQATwATRnAecP6Jy+e/TTEoW+Eb1JrgAxP7r1ko1QHNCIkpSnlAAEgIExaFhhYOmDtLviQEjAAyj/+6rdqQWBNLuvA17cQsrYAGYZvX9c44tAa0BhPPHQ3y09UO4ChroDwLaAfodtis/+JNMxzZ34TEPWqrwNfS4A83D3bteczUIouegAMJPYAjFiJPeQEICWhJWA+TcODgkkABrRCIWWsB/R53gJFSaelVXPtYN2Si7UCSEiUKqY5BfPpnM0FvGaTZsrNjsVzyftxidGY2haOPMwuzWNLVQ7WqVSlNgDR+hsxzSmYT2+8f9mc/+D3aptawxR1eQdaZf8DP+hrl9AHQuakBYku2VifDHwtADLQHBvgb+yTbAyk3zOP3RtsJgAYkHjTri1Y2oKuj1qg7N+xhX0lt51em9QDJJUDZFiabsEhO+EHkwCOeIiv0QKjmP8RBXvc+imhQIHg+btX/kscErbn4o9f6j7SDUZpQAeVAkQTqQIgoDVCzIAWGDKOiQUUTaQLZ03sOZODshnHa10ZQDT1VKEmVQuMMMYBUI499qOghKvS5Fq82N2zEDZ73duVAESjOVxeQ2NSwWFE1hfh2jIy27qtaM5bMG9RsqN9lCZXJSApHSADn+P6W5a4VCUuAIHNwPkMzQOtgdg8Mt3tE48Cg33ZrvZPIKj+5uX/kAZGlqwm2RlvFf6eSgWIBhxafwNSCloDZxvaJx0FYHb9/V/+sTqSCJAIb2UpVZOUBhBptCrEGYedC3C05lQ6YIz3DC2vTTbKnffyqoFLAQiu95w3G61ZxYVyUf7wy0M/FkulsORUecw0rSMhiAJtovETkYeCYOOfcvIkyQEyTALC56Aug9aq7NbX4FkrZUuA458O/Ykq0vXi4qd9zc8+ZVQCJwWItHwE4ABxpRKoNalYliqvndbkQqQRQRX2sQy8kPI+rqQA2dW9gOOxTzOL1YCjNakYylbXRmtyIbCCzDv72Eshdqa6FCIZQHZ1z1lg9C9W8D4anwPgABGFERDvXNoGcSmgEXyYgTChuLLRXNue4hNzSQAiCedqbFaEcI+98us2txGXl5P1ptljTEYY3UoS/o0OEIlTDsIh6iE5EtqCIxkfJ+1YCxJYCXwuK35kKzpAbBnJ68wZck2eA+YUCNbmN5LyctLOEYSRCERMRpJMjO2PRAUI63dowPHG0mV7ZuPjFhxJ2beczo/ZamxJCb2wLGXFlqN8P9ZKogFEUoCIwsMn991Dr6EFB02qxjTUgOTwC0vUmZKYJfJRADI8S/4ekyl/1BYdPmNLptkHPgdUbGtWsRRrTjupuQUTG7zAPLHOtkcBCJvvQDj31M920InAFhwMKzS7zUs/2ynKukuy7TH8kWCADE0rlJIUPtKIFa7bgbRoy9R9lG3275rolsBpDy6PDwKI5LIFSemB0ClrNoe0s+9bFP/81J/SlgX4g/VHQk2tIICwF7xJ/I42Qz6biMFldjC32Do8gT8SFNVSA2RQwr7BOubFJwOlfocsMTSbzDStq0Z+BI47+/Al8vqrTdUAYROCkkiFsP6GpWPbrkEUkJjiWBbrj9hrTbdrrjVVAWR4I4n9VkfxIznc30asfNScnd8lkS0Ec/7i5L8xxFHVaokBMnTMP/aZVhLHq3XKmf2dnTYS3gFVWFNL47CLAcI65hJVyS5wdlikXanEHxFEtcQOuwggrPaQLK71O1ow5FFAUo7CH7KSVfyKAMJoD0niB/Yj4tltGUkLkjwKID/CfsOEjICKtAgNEFZ7SAoRyQW13DPDFJBYIxC0f/4P73ipJbnsgQYIoz0kOQ9eJXrXO9IARzzdt89d0kl4Mk024Ay2Bl333H+7+StblY09d99rfO7MR1S1rZRkOFTHXlZO1mrRWoQCSGztkSpqVfRJBISRj7yAvGb7hFDAd5YnhTDCmP/ytw9R02YddlaLUACJrT1IlFMEcY1QzvKUvd2vqFShjZaJSDqxMZPbSmE6S8qVOP7qLNtvtW/3UcQLkNjaI4Vjzt6cAemCpFIbFPCxRf7vkORMvRS0dewvdrEJRNYXYfIiXoAwx2gliR22NIDdQonfgz7hxLUAYam7vt2FZ3dTL7OmDtXZsBEEIUDCPJwWMd5yeAIg53HWY1/RpNjIVWzHXHrGpAUIw1rFbViAoJcUfh+bG2G1iK9GqxAgw/utCj3bKrUHC0y35YIS6XBOmtIeWDPHLT92Ihhl8a899WcUdTmfs/imeA9AznY7Zu7ZGNojNnNqrrWMbd5RuzRljWDSInkneWLTnQ37klqkMOSbCxDGOa9Ke0iy9akkmYRBpq2tpM4OaycZlSaTxBdhws5FId9cgPyke+7AnOng2+W5D5I3QLPvia09mFBjdk5tKb1vh+S/S00thlEls2DH58CZb2blAoQ5EMWquphxcYnWctKLPb+c3SBIqT333dHP4CI0jcsjXn33sySZYgljhLYF/Z6w3z6HiQrm0a6rrH3IW69EiyC0jz0seHLNrIkAYZxz1haNHcmQOOZgAJQ/8He7DkhYlHSMLQlDGV7yfux1SeqkME/ptz98a2O1CDNunpmVA5B4zjkXSfCRYvC7VGppxvY5/yni+9zqw1ox+SKNM82a2SHaPG/lbHadMbPybmOcCBB7EZw9MVj8PUGmDDl25lqiPTQ5F4aJUkjCMNbn3mZopwU/a2pjpmQCj1qURGAymn9STmQdQBjzilWtGibNowyIgVsZ2bMBUmkoSToyEona4RIbsUwsOOO9NnvW3HZahClJZ0nDJg45Xlx/mGodQJjSEjbMF9M5l6hyjhijW8CuCW/F9qtYZghpx9rrGENDv2P2vuX9tmCUeRhpzvSDNqywRlufsz7JzFoHEF/0ilVrsc0rVgKCENJCOQmRtQzEbniqdhIBoKGhRItoAFhEF8bcx/uET7oumjVBgxT7H6wkj1liwIISRGAiFuPEloAP70rNN4bpwWAIXbrQqycsyXQ50kbCwFotyWqR2MKTBT8DzHE/ZAQgzEXUjLMXm4lYUGokn1R7xAI+QO9OPqK+aFIJOTYUeQpIvhgPy0huLKkmlhxsimlmScb1V3OP+iEjAGEORjE3Jca20VkJrxmX7dtJ1dBvlThgwF5nzlVgXEjckxYkb9pviIc+zP65MTT0ZM0dRppL1sqO69P+437ICEB2dYtL21mkxpKyjkDs4qXjSrKx2hBodpPZg115jAGzC4GPkINI0migz7EdnyurpWJHAtlxiTDziB+yBpBhceL/FKGWNXViRq8ktrN0XNZcBE1CTYJQcLh9iXGeX2JWSoUOK0SxHin4YvAmA8ysH7IGEKY4kXXCHj/5r9E+fMOCkln4OIFZcyO02DIWOLIgCT06zIZ9NXRlNX6o0MnupwSYEj9kDSCM/8EsXGO3FkkGtnJXatNKCCrVTOMbJ/k4DGt3axJ64+Yee3xVKulZQUqEXVly9NuxAs8HzKwfsgYQX/6DtdelKtlHAdYM8i16fBxWM4UCnp2/jw6Tfg8BLvpjBB7aSRmZpS3hD4jIwtKaSAWs+SFrAPHVX7GFYaGbNk4RVhpJx2X7DQG8JH8j4oRh41Atwjq2Uu3M+jjSfn00YoHJmI0bzbXvL3YXVvoAYRx0lph++863zNHf2TCsL3w3PirbrxR42XFYiSajyGjrkPmxDCX1wdjASmyASASSj0/dF3L7AGEKFBmGCjVHJjEK60xK7WTWXpX2m10DQ7MQcODdECZj/TCppmL7TcEv7L76k6CDhOEQIOcOd0yn8ItRjL36xtJl87w9oBTzYcbFeLuPXxANm6rf7CTYMUQTH2scAhB0xVwEx5gk42tgrgfS9OujFWvp+Pyqnrl+/FL3EXtpiX2s//ELe/7j6aLBmQWH2Ot5YzPjSiUcyxiafrPrYObu23Df76FMxmpoqQBigKcRbD56sFFPX4DARbL6AIkVwQqxhyctnFXVGiZhmFfTr1sHG/XzbTjzu5R5s32yAPHZ7OPzTNWvjx6sX0Vo3v6ti06DFJ4gZCNYMROEjhCMJNIwcqp+3bxZcPs2nPldyrwaM1AKQta8lPbrowdLd8I66Id6O0wEi1VbsRcLYrCEljJJagnHbpRvw32/hzq6jCYlmGndNFP166MHaz4zQhWh3k6dI1hYbLyoxChpU/WrMV+YTc9rQ5gKud2z4VgpCFP1y9KJFX6+CKU1rxY6zBkQZsCQjSpaOJvQk+ZBYkU7iubOjsFu/KR2IYER1jIgMs8jU2P9L2m/LJ1Yuvt5pneUAghj5oRsVAwm84Xtxsdgk3jSJFl2HNZhZDd+Ujv/Juf3zuZppHvL+qzSflk6sXvr5xkLkIe7/hwI49D6wmbs4rSM7F/saM9sOQTe8qniorUx2ldLmxCtLck6S6OTrGZKxTPs+D6eQS6kw9xiwjhcvsG0TMBKYY0jyWhGzDtE0kmAKKFR6LkQVspqzo+zmklaYMrSh9VgPoD2AcKUuTMASbVY1uHTSHrWvwk9TcgyDMsAoaCVaA+plpL0LdVMLH1YoeoXfJ0TVoMUZ9FZBk21WBCFlfRSLcYSEnOQMkp2MzWfayhiBji3WCuAq3lY7YG+pfvK0pQJs2rWhnfYOfiDBJ1TAIitweodzpsMG5GQElKyeFbSS5lYmqsI1ZJsaLmINpB6L579VA0O1vzAHDSak9WW0r2S8Atr1vrmgHITRLFe7xlzIBQgIdEU3+JZiaCRShJpinmGrjMEJH6ToJiS0qO/Pht90mistk8pUFmhTgHEd5MJi0Z/+bAPBvm/SyS9VMpLb/nQSNXsykIAomFYN7bUzNM45xJBpvlmC8tB7HcMiRD+ojWxzuMjnTvyBmcXnaIOKzsnVnVrtIjE7AjxR1jJlrcXmrW5vqSaUgNGNqTtk9wsEPLasQKVqBBYAkAKP/NcF4BImFiqRUBo1jRwmyKt/cJ7UiadxAAaTc1+1sGNh5A5JLwkCCDZHw34JKBhNYg/NdBZjgYQzcZJFs1KBedcSq/YZ01JN2eNLyIF4ST6+CMv69+Sai6pfyA1U0MSrwzPsAChNIjPSWcZR8MwzGI1Zhbe0UgpiRSUCgRWE/toojGzJADR0E2iGVObV6Afu17SB4kT5i0DIGxOxmkRjSPIhJQ1DizTrw8c7nepCclKeE2UTJIYxPzL4BNWqBNghZNe/0RhlnEkjEZIiIk86Ys0SROSUibyAYXY2HVd+LSj5lPZWNczj93bT8wxj2beTL/jbViA+M3VQaKw8Dw6a/tLpZpm4XiHnY/rX7MpeRsPzeGy2JL5xzKvsmNq7Pg84QJBgq8BS79JwpaVO40O7RFy8TZLc5befo0ZESBSqcoudlI7iRbB+1rwQuretWnwYRt8p+PN9y+rNpgNUYNB2W8waumNtTz6wJa1Ty+c//BL8WeyQVO2Ytbtn58ZQzhi9F2ftuTnZGuxYhUrapw7LUmkWqQs23fSeiTmFWgIBmZMFn+IUktd/3u+T2WP9xCaXPXPaLQFC14fz9LVvFWeB8kjjiRy4lS8xmmXbs54e3az8B7Mpp3b/sDa9T+ihtWYWVTHBY2kORV05WPE0Dlpae7XwvbAFPPZAwYgGls/lDBs5taNo3XaQ+bpc/hd345+Eu1YNuNhrqy56Nalcf5D6C2Zo8/07pneEerILbPJmvh8KCEk5osbq4wwoxuLjcejfTY5x/pYZdOcjQ659Yce6tLyB8Ov4zSfNNZ10ztIXfvDRitSXPvjI5J00/xq1Tci/ztrBo7nVdgoDGYiTVjys1/fUmIuYk2IjEEzlv2wFQs+E7UPEEze1mPh02ub8xbCbnTqgsW8+UkYqsxoCrtRk8xT9l1/LD8ee7J8gBHLFETZFbJlJoz2xafYHECiVPSWab6MbztrlkjrjLTsJQHtpDmxWpvZaO0axt9j11SmEBqfI2tR+OuwOssXu7vXAFJY0cs6jlVJDUckn+1ZpsPIAjYvXMvSHGv3OZuxAIJ+fIERBEIAeEklcMz5sWYgoXkX7dWjC1Fvd68ikpUlbtGhIGwYNg4bmPqRBA+KIlGsmVUm3RHm/eWhH09MaFYNDuzrMVv6sn/HFu8W+7Vc54TVIEejfh+kijDqJEpAiuy57461DDgY6NV3PytNqrGmCOZe5GSz0hD9+BxOL8cIG8AEhDkDm99VGUAqV6U53PTZMLTP1EaI91J376k+QJhciM98QT9l2sPC/Sy1ObtJPjtYYmZVbd6WSuCCwVit6xMoiGC93d17Ovo3Cqt01OuwSbHMK6lErLL0pA50xxwkeSffiVBEsN7pLixnvnJbHOplzYYqsrt12SDMI7ZZxBbeVWFm1YnuEtr7NLfta+JnoAvvx2LV/aybWYwpis1kHWuW7uhz1oUTa9r6HXTT/7oUaLqmQZiqXl+Iz0kUn/qqm+SJNR+Jivc5idk5sSHjWRZOEtPWT/tBBGsEIMyXptjkVZlx+VjMHaMfSaYZvhob8UG0CLRnnjJLT5j5lNWGTRAyx6Wdgz4CEPyPr+Sk9UOKt5uNoKRkGiIBlnL4yvpmhROTinAO+iSARMmoz6KqZ4VHag6aRdqDpqzvR/hpa/7HOoAwfgg7kaoKF1MzYF7/rINYxvxmzcSN6/vd8D/WAYRJGLKq7I2ly+Z5W+48C4/EQSyDHmyErIy5lDEGy5NS/2MdQBg/hEXrLKn6uphXWWb0ZYrLYNyyxmB9P0JwrNhPP29f7C6suLmvhXndP/huWkQ7dkKzourrZF65fZyV0hM2egW6+MK7+B7Ihe6eg1lgrwMI81FPNtw7C2aW5LbHsiQqxpmV0hOWFxnzCreYXOo+0i0ECJMPYbO7s2BmSUpLygQIxpp2M4u9UhW0ILLnJhvezTWxBn5I8X29rZl1g9XZqB7qf2LdKrjfXmjHPAxTMP3UtY3E9yOKaEfCu4UAYaJZbBHdNKt6NmDB2L8SJmxLTwbUkggnVBgUPZPMK7Rf54O4TnxZddbMis0cEkZK3TZmeFEy18iSUzJ0bdpKnHMiObhizaudKG8fX2ABQIovtUZHrCQjyotrQ3jJRNhoHhFelAzbb8uOPa2lJ6z2AK18vtik6FWhiYUfbbh3n/36LUpPch8JiqetiE4ixX3hRTE67AuS6I30a1ua+ZT5joTvGOGULU6kNQgaWmf9Y/sN9W1Fi2cl2bRpETb3kcoHk5i405aPYmkPvvULp87yRvPdzmxyMMvvuSbWECCF3w5BG9ZZR9tp0SKS0hLC/lULX1Y4MVJUPYmSX5QERhihnOece00sNGByImg3axslMa9SCgVJDsZnh5fM5+rh2Gt9MACjOXtmbuel7q6lvAkVapChFik8ijuLWoRV8YwEU3OKfVFiZk1D6YnkuyTkp6z7l8MV7YEXILG1SCqbPITRJO9KSkuw1n9f/l9J9+K2e++/fe1rUUUvN53uWJskcsVojyLnnDKxXCMmsy7xRZoszdjch5jTS3ihyWaWxJyMpT2wJV4NgkYPdd/aNm822IhW/iOpi0GNFmxz3MjXtEcixeq2tqaWnkiCIqA5I4AZ7UEDBA2ZMniJdG1iZEUSQakbODCfphaPsjkfrJHUHhPrribtGaVB8OLD3Ys7OuZ6cUGLbcdGtNAnUUBWKz6TCIBaTTwzmabRXJIUxDIZ38Pdu8vsEQ0QdGbrswq/I4I2kgU1zXGUgJ8hfhVtmlR6AtMKEUPwFPOQVgmtPUQmFhozVb5ox4ZB0bYph6okuQ9mM6tq0yQzS6Kx2e8hSrSHGCB4gfFFJPF59OkvB6iKnW6MKwF99bMtngFjhlS9BqlAIisWRNpDBRA2LyIJy9U9qiWNolTNXL7xSVPE102y3/HNEVxzC7ozD+mYG6n2UAEELzH3Z6Ede5cv2qbOOjOEzmsjkWaSK0VD5jTpXXw06Ml991Dd1jUnAlA8Y78SBZqzD2OBFJW0F40jctJdRwMtstE67MWVvhKHHX3XNU7PmldVg1xi2jK5ApZBY7aT+B0Yl9SGK7bmaqGo5ipvDSqAoDPWYZfEsNEvIw1iboivL0lpCWkH+4YM+p09xFbHCKKk1gpE4h3z9beVsERWAwQDMA472klMLXbR7AJD27ESDfM+/MJSP1FV5SMp+amTmYUkLKoUWL9DIEyX7GVwC3nnPXx7FQQQpgQFE5BIYScZ6lKKwoKbVPW+/Qj+XWJm1cWklZQpOQKxc7cMvmAvg1vUEjYIIBjUFjJ6D1WhncTRRXs2MqFdOPOepLSkTqYha2bVISciTQZi3/jv3Y9eRM3s+XibYIAMQOLPsKMdu3FuklU7vRLzCuYK+0EczUZJ3pEER6osPdFErAQm+Lp7diU0dG2jAITNjWBQ1mRxE2Q+eKJZOPMOW1rCqntmzFht2LlXVXoCcPz8p9vN/h1bREtmNbUm5zFpIlEAgo7ZqJbUH0HfVdj3EpOwSimcx11s9LAqM4udX3Z9vCAKN62iahDXGXOwCm0lJoDru2yQNCX3kQcQibNeZukJ5gXTFZUWkgf7/5z93gxhxgZFrcbnFE2D3AAJ549IJHQV5hZrotQh95HHaOwayhI+WrOKd8qNOiGYR8PoAGFDv5iQpF7LLaAsx/3Cs7spAVenXML4hFn6lgEQjUOO9QjAYdhTgtTGDhtFB4jEH0FbaWRLSjQJMbJtGelbZQCBWRdrZqV21LXgQKj/r1/+TzL5Gs/vyNI2CUAwAOuPaEEiCPcxvLSuDRPiZSMqqglEeokRQCmDDMglwZ9DcEbyCPd30WbLD2qz5UXzSgaQAUjOF35WOjsxzWUIICKYFJI8xVMUkk4tdWOtx6dF+MiQfEYIxqAyVwMOOOQw/YgnSr4jb5ykABmCxHtMF+2wkQAJJI70SeUoD5zKH9pY/Y0P1gCUYKpX3/2MiahIl5Kk/SQpDvMFa8BaUjwuUiWprcI8QF8JOKzfceTt7t7TKdaAPpMDZJhEhCbZwSxCo0nQr8SZY+aRbYNNhjQEU+GqIiLUKB2ilPaQ5DiMhPmnWofW36gjOEoBCAYZRragSTYznMDmIMb7Sm1yMXOf5TZak0oBDtXpQM3eJNcgblLstUGuvSbT6t5NZXJpCDwr72hNKtBHFq3CG72jF7t7T5RB29IAgsUwH+XJLpqJJOURCSbX82d+E+3DmWVsRhPHgNaAMNP4jlgv9gmBFv4cTZpwbh7tSwWIBiSSA0CTFpkyStNEho41Z1cyggCG1BF3c0D0EeDgfbpywYF5lg4QDUg0tVtZRsAGnPzVb82bS7+LxR8z3U+Ir+EIJ6itGr5SPjgqA4gGJFDhSHppVblT58de+XUjL82uAyJBe5i9khtHxucNYfXi2U+F4eXOCfuZtOMpEoE+ulaiQdykho47QsBUdAvvhTjvblyYXa+9+98tUHzcMfwdoeHHH/zDfj5Ia045AQVwkAnANc1RFTgq1SBubwYh4I0WJMVXCGX3MtQvcX3h2tOX7IY18TMMJG8HNYPGePSBLcHAwCTk/gbeKi9alUeoSjWIm5Q0mYj3YphcWXsY90S1QBlQBD4GLqEL1RjoS2dSoWy9d/RSd++pIIRHeLkWAME6NCDBezFMrixQUH6RqrYrwn4l6wKmE4TOEw/eHeRjZCeIEC4Ej5CeK6nLRyRErHBvPScAAARQSURBVA1A3KQlVcDuHW3FaB6hIPVQjDgLfgq0xc6tVmPYqz5DAiBZWjqtARryIVz00Fnumc5BzQ2IEqaXtK0dQDD5Xd1zT1ti2euEZA97QEjSK6Qf/mtScaJvfdAWMJ/gX8QChRsTtILWgPYQPkurtmT9ne7CsvC9pM1rCRCseBDh6r0ucd7x3qQK3FgURPQFG3/+w8GfTXoABOdb4O8h0ahJ61b6GsOuqgvj+vawtgAJMbnwboxklo94AMx7nww0TN0A4wDxR1u+Z/Za8yk2IBxtAIxzH/y+rzVk5lS/h9o443l7XXuAhJhceDeF2ZUnQR1QPv/qiq0tuip1Tn14nPg7GB95ClfKDkDce+et0U2nSYMHmFPobtGaVEfqZlKNr7MRAAkxudyCARREaKSn21Rcm3kJRXjQLgghf2GB87WVuAAPHkhcJ3WzIWYn7W+7Zb4v+d1/eKcPhk239AHgwJFKO+StPRAYK9ZsPr7RrJ6qIjMu3c/GACRjclF3AecRoiqgSDembu0BZBe2DTAnaxXCZWjcOIDc0CbXX7J/p04pTiJECxSGPQZaLgIwGmNSNdbEmrSd2nBwti/E/2F6sZ8a5tiq+a3c2fsIEbslm/g7nvLceEpqN1KDZAky/BwczK7DIYRKmRsImVeZ72a1RYQz643yNfLo3HiAuIVp8yaTCOOyyzDDynaAywSEGwtONzSFPPM9ebaWqU5fM9eO1j1CxdB6agByw4lHFn7uKWmCMY9YMMFQigHQxM46MxuUoo3TFA4YAU73+PQW7ccybZHhrqUU866iz6kDSCqgoF9okz33327u3XJrlErXsjZ8HBARzKfxqVtA9F5uSuhWQvepBUhKoLi+HWB2bt3c1y510TAOENmyGEWWm+GjRQuMM9MIDLf4qQdIGUDJchISkQBKNqHnMt0Mx7Ft3OVv7jI7JCFhMiXQDpOmtGgZ53jIxzHZdVbdbmYA4giNL2HNm86hnjEHyiY+wDOaHZ/vT+E2ZMtv3tD/uwsK9LPsV6/1M+/fXFldy7jj378e/n8irZBHFhuVMkvT5mP4eGDmAOIIMggPzx+O6dD7iN3Q3y0wOqfsOY2Xp8n5ZvdiZgGSJdDgQrvOodBcCkv0BrRbsYyxeN3MHb/JfLvchJqpVDRtATJG2WF2/jH7z/tSEb2m/Q5NqN7LN5nV07MMiuz+tAAp4NbBl3vnHrGaBWBR133VFBCYVh8U0x6JCqF/CxCSevBZvjXzBzoDwMDBp+/yIocoo9lQS1w/a8yG07NuPjEEbwHCUGlCm4Hf0rNaZW6rBQy0Sx1NshYQyv11r7UACSRg9nVomatmft+cMdtKBA5AsGw3EjeCLBtz/ZOO6SzZWqhl+1XAldaXCNvgFiBh9KPfxg2Sc+amzT2zasHTvzXcmmiD2yQ7Zn6rvaDC/mY2238Hw9sPxHTwZ//vg/9f/coy/vA3/Pv8Umsi0eRXN/x/hGzEwafXnVgAAAAASUVORK5CYII=;" vertex="1" parent="1">
          <mxGeometry x="-19.560000000000002" y="-634.9999999999999" width="60" height="60" as="geometry" />
        </mxCell>
        <mxCell id="59596a_35e80KVfduihG-36" value="" style="shape=image;verticalLabelPosition=bottom;labelBackgroundColor=default;verticalAlign=top;aspect=fixed;imageAspect=0;image=data:image/png,iVBORw0KGgoAAAANSUhEUgAAAMgAAADICAYAAACtWK6eAAAgAElEQVR4Xu1dS6xcRXquvtcGpIHYA9IYiITtURiINBG2lAgGP/BdTfAGWwpkaZssZpMMeBXFLGgvIMpq7GQ2bMAsgUjYG8isuH4CShQuSjSBQRouSAE8EpNLIJINvu7U1911fbpvn1Pf/1fVeXSfIyEbd516/PV//7vqdEz7JKfAvu5bm781N20zZnUHBusYs9kN2jO9zR0zvykzicxvq58M/r2z3DNmZd50Vq6bOfvftyvvdBeWk0+8HQB71T6hFHAA6JnVbXPGWCDMbTWmBzCA2e3/3wBE6Fjr3+8sd0xv6bq5/n7PdJYs2JYvdXctxR9nNntsAaLYdwDimtmwwzLlvo6Zeyw9CBSTtFonC5ybzeriYndhRdPTLL/TAoTYfQDiqpm3YOjtqC8giIUYs2jNNatlemcudPfYv7ePjwItQHIotLt7fp81Wax26O2zTfq+w7Q9dvNPwzQzZsPp1iybvLstQDJ0ebh70QLh2oGhlphKUBSA3JpfnVOtdhml0MwD5KHuW9axnjs8o6DIw8tSz1w/Y7XLqVmPls0kQJxPMWc6z9bTwa6PMTcww3pnLnX3nqrPrMqbyUwBZBCOnXvahkIPWd9iW3lk5ke69ZYN5psr1/gXSm3ZObFqvjs5S1plJgACYHxnNlpt0Tts+WktEZeat8Dsd22+2dy5+ZbBn5sGf+Lf8eDP226ZH/n/7JwAFPz39ZXV/p8OOPj/L1aumM+/umL/vGreW/4q9VJG+odWuWauHZ0FoEw1QOB0W6cT2iIpMMDoO7dtWgPBvXd+bw0YZXEuAPPRF/9nPreA+ejyN6UAZxaAMpUASQ0MAAIg2Ll1k9lz/x0jWqEsQLDjnP/gyz5w3vvkq2SaBkCx8zk5jbmVqQJIKlOqSYDwAScxYBatQ3/y7e5eAGYqnqkByE+65w7YcO0vYjnfDhRPPHh333xyfsNU7HpmEa++85k5/+GXkbVL55R15o9Pg4/SeIAMMt7GAiNOthtg2HPfHWb/jh9MLSgmgbxvhlln/9V3P+sHAOI8vaMXu3tPxOmrml4aC5CY5hT8CYAC/gT+PusPzLBzVqu8ufS7GKSwSce5I00tZWkkQB7unrOZ7w60RlDIFtriyUfu6ZtQ7TOZAjDB4miVzomL3d1Hm0bnRgFkqDXgZyBsq34AiJ//9IetthBQMBJQVuwBsaNNyso3BiDD6tqXtE64c7rLBgaSe/3cxBeD3MQ3V5H4Q9JvNPnnEoLgWSQP8WDON/4b/NtdNtl4p0023mWTj1VovjhA6Zyy2uSIAJ+VNa09QEJ9DZfEgymV0r8Ag8PRxX9f2Aw3HF4Ao4yyEfhOt1pQATwATRnAecP6Jy+e/TTEoW+Eb1JrgAxP7r1ko1QHNCIkpSnlAAEgIExaFhhYOmDtLviQEjAAyj/+6rdqQWBNLuvA17cQsrYAGYZvX9c44tAa0BhPPHQ3y09UO4ChroDwLaAfodtis/+JNMxzZ34TEPWqrwNfS4A83D3bteczUIouegAMJPYAjFiJPeQEICWhJWA+TcODgkkABrRCIWWsB/R53gJFSaelVXPtYN2Si7UCSEiUKqY5BfPpnM0FvGaTZsrNjsVzyftxidGY2haOPMwuzWNLVQ7WqVSlNgDR+hsxzSmYT2+8f9mc/+D3aptawxR1eQdaZf8DP+hrl9AHQuakBYku2VifDHwtADLQHBvgb+yTbAyk3zOP3RtsJgAYkHjTri1Y2oKuj1qg7N+xhX0lt51em9QDJJUDZFiabsEhO+EHkwCOeIiv0QKjmP8RBXvc+imhQIHg+btX/kscErbn4o9f6j7SDUZpQAeVAkQTqQIgoDVCzIAWGDKOiQUUTaQLZ03sOZODshnHa10ZQDT1VKEmVQuMMMYBUI499qOghKvS5Fq82N2zEDZ73duVAESjOVxeQ2NSwWFE1hfh2jIy27qtaM5bMG9RsqN9lCZXJSApHSADn+P6W5a4VCUuAIHNwPkMzQOtgdg8Mt3tE48Cg33ZrvZPIKj+5uX/kAZGlqwm2RlvFf6eSgWIBhxafwNSCloDZxvaJx0FYHb9/V/+sTqSCJAIb2UpVZOUBhBptCrEGYedC3C05lQ6YIz3DC2vTTbKnffyqoFLAQiu95w3G61ZxYVyUf7wy0M/FkulsORUecw0rSMhiAJtovETkYeCYOOfcvIkyQEyTALC56Aug9aq7NbX4FkrZUuA458O/Ykq0vXi4qd9zc8+ZVQCJwWItHwE4ABxpRKoNalYliqvndbkQqQRQRX2sQy8kPI+rqQA2dW9gOOxTzOL1YCjNakYylbXRmtyIbCCzDv72Eshdqa6FCIZQHZ1z1lg9C9W8D4anwPgABGFERDvXNoGcSmgEXyYgTChuLLRXNue4hNzSQAiCedqbFaEcI+98us2txGXl5P1ptljTEYY3UoS/o0OEIlTDsIh6iE5EtqCIxkfJ+1YCxJYCXwuK35kKzpAbBnJ68wZck2eA+YUCNbmN5LyctLOEYSRCERMRpJMjO2PRAUI63dowPHG0mV7ZuPjFhxJ2beczo/ZamxJCb2wLGXFlqN8P9ZKogFEUoCIwsMn991Dr6EFB02qxjTUgOTwC0vUmZKYJfJRADI8S/4ekyl/1BYdPmNLptkHPgdUbGtWsRRrTjupuQUTG7zAPLHOtkcBCJvvQDj31M920InAFhwMKzS7zUs/2ynKukuy7TH8kWCADE0rlJIUPtKIFa7bgbRoy9R9lG3275rolsBpDy6PDwKI5LIFSemB0ClrNoe0s+9bFP/81J/SlgX4g/VHQk2tIICwF7xJ/I42Qz6biMFldjC32Do8gT8SFNVSA2RQwr7BOubFJwOlfocsMTSbzDStq0Z+BI47+/Al8vqrTdUAYROCkkiFsP6GpWPbrkEUkJjiWBbrj9hrTbdrrjVVAWR4I4n9VkfxIznc30asfNScnd8lkS0Ec/7i5L8xxFHVaokBMnTMP/aZVhLHq3XKmf2dnTYS3gFVWFNL47CLAcI65hJVyS5wdlikXanEHxFEtcQOuwggrPaQLK71O1ow5FFAUo7CH7KSVfyKAMJoD0niB/Yj4tltGUkLkjwKID/CfsOEjICKtAgNEFZ7SAoRyQW13DPDFJBYIxC0f/4P73ipJbnsgQYIoz0kOQ9eJXrXO9IARzzdt89d0kl4Mk024Ay2Bl333H+7+StblY09d99rfO7MR1S1rZRkOFTHXlZO1mrRWoQCSGztkSpqVfRJBISRj7yAvGb7hFDAd5YnhTDCmP/ytw9R02YddlaLUACJrT1IlFMEcY1QzvKUvd2vqFShjZaJSDqxMZPbSmE6S8qVOP7qLNtvtW/3UcQLkNjaI4Vjzt6cAemCpFIbFPCxRf7vkORMvRS0dewvdrEJRNYXYfIiXoAwx2gliR22NIDdQonfgz7hxLUAYam7vt2FZ3dTL7OmDtXZsBEEIUDCPJwWMd5yeAIg53HWY1/RpNjIVWzHXHrGpAUIw1rFbViAoJcUfh+bG2G1iK9GqxAgw/utCj3bKrUHC0y35YIS6XBOmtIeWDPHLT92Ihhl8a899WcUdTmfs/imeA9AznY7Zu7ZGNojNnNqrrWMbd5RuzRljWDSInkneWLTnQ37klqkMOSbCxDGOa9Ke0iy9akkmYRBpq2tpM4OaycZlSaTxBdhws5FId9cgPyke+7AnOng2+W5D5I3QLPvia09mFBjdk5tKb1vh+S/S00thlEls2DH58CZb2blAoQ5EMWquphxcYnWctKLPb+c3SBIqT333dHP4CI0jcsjXn33sySZYgljhLYF/Z6w3z6HiQrm0a6rrH3IW69EiyC0jz0seHLNrIkAYZxz1haNHcmQOOZgAJQ/8He7DkhYlHSMLQlDGV7yfux1SeqkME/ptz98a2O1CDNunpmVA5B4zjkXSfCRYvC7VGppxvY5/yni+9zqw1ox+SKNM82a2SHaPG/lbHadMbPybmOcCBB7EZw9MVj8PUGmDDl25lqiPTQ5F4aJUkjCMNbn3mZopwU/a2pjpmQCj1qURGAymn9STmQdQBjzilWtGibNowyIgVsZ2bMBUmkoSToyEona4RIbsUwsOOO9NnvW3HZahClJZ0nDJg45Xlx/mGodQJjSEjbMF9M5l6hyjhijW8CuCW/F9qtYZghpx9rrGENDv2P2vuX9tmCUeRhpzvSDNqywRlufsz7JzFoHEF/0ilVrsc0rVgKCENJCOQmRtQzEbniqdhIBoKGhRItoAFhEF8bcx/uET7oumjVBgxT7H6wkj1liwIISRGAiFuPEloAP70rNN4bpwWAIXbrQqycsyXQ50kbCwFotyWqR2MKTBT8DzHE/ZAQgzEXUjLMXm4lYUGokn1R7xAI+QO9OPqK+aFIJOTYUeQpIvhgPy0huLKkmlhxsimlmScb1V3OP+iEjAGEORjE3Jca20VkJrxmX7dtJ1dBvlThgwF5nzlVgXEjckxYkb9pviIc+zP65MTT0ZM0dRppL1sqO69P+437ICEB2dYtL21mkxpKyjkDs4qXjSrKx2hBodpPZg115jAGzC4GPkINI0migz7EdnyurpWJHAtlxiTDziB+yBpBhceL/FKGWNXViRq8ktrN0XNZcBE1CTYJQcLh9iXGeX2JWSoUOK0SxHin4YvAmA8ysH7IGEKY4kXXCHj/5r9E+fMOCkln4OIFZcyO02DIWOLIgCT06zIZ9NXRlNX6o0MnupwSYEj9kDSCM/8EsXGO3FkkGtnJXatNKCCrVTOMbJ/k4DGt3axJ64+Yee3xVKulZQUqEXVly9NuxAs8HzKwfsgYQX/6DtdelKtlHAdYM8i16fBxWM4UCnp2/jw6Tfg8BLvpjBB7aSRmZpS3hD4jIwtKaSAWs+SFrAPHVX7GFYaGbNk4RVhpJx2X7DQG8JH8j4oRh41Atwjq2Uu3M+jjSfn00YoHJmI0bzbXvL3YXVvoAYRx0lph++863zNHf2TCsL3w3PirbrxR42XFYiSajyGjrkPmxDCX1wdjASmyASASSj0/dF3L7AGEKFBmGCjVHJjEK60xK7WTWXpX2m10DQ7MQcODdECZj/TCppmL7TcEv7L76k6CDhOEQIOcOd0yn8ItRjL36xtJl87w9oBTzYcbFeLuPXxANm6rf7CTYMUQTH2scAhB0xVwEx5gk42tgrgfS9OujFWvp+Pyqnrl+/FL3EXtpiX2s//ELe/7j6aLBmQWH2Ot5YzPjSiUcyxiafrPrYObu23Df76FMxmpoqQBigKcRbD56sFFPX4DARbL6AIkVwQqxhyctnFXVGiZhmFfTr1sHG/XzbTjzu5R5s32yAPHZ7OPzTNWvjx6sX0Vo3v6ti06DFJ4gZCNYMROEjhCMJNIwcqp+3bxZcPs2nPldyrwaM1AKQta8lPbrowdLd8I66Id6O0wEi1VbsRcLYrCEljJJagnHbpRvw32/hzq6jCYlmGndNFP166MHaz4zQhWh3k6dI1hYbLyoxChpU/WrMV+YTc9rQ5gKud2z4VgpCFP1y9KJFX6+CKU1rxY6zBkQZsCQjSpaOJvQk+ZBYkU7iubOjsFu/KR2IYER1jIgMs8jU2P9L2m/LJ1Yuvt5pneUAghj5oRsVAwm84Xtxsdgk3jSJFl2HNZhZDd+Ujv/Juf3zuZppHvL+qzSflk6sXvr5xkLkIe7/hwI49D6wmbs4rSM7F/saM9sOQTe8qniorUx2ldLmxCtLck6S6OTrGZKxTPs+D6eQS6kw9xiwjhcvsG0TMBKYY0jyWhGzDtE0kmAKKFR6LkQVspqzo+zmklaYMrSh9VgPoD2AcKUuTMASbVY1uHTSHrWvwk9TcgyDMsAoaCVaA+plpL0LdVMLH1YoeoXfJ0TVoMUZ9FZBk21WBCFlfRSLcYSEnOQMkp2MzWfayhiBji3WCuAq3lY7YG+pfvK0pQJs2rWhnfYOfiDBJ1TAIitweodzpsMG5GQElKyeFbSS5lYmqsI1ZJsaLmINpB6L579VA0O1vzAHDSak9WW0r2S8Atr1vrmgHITRLFe7xlzIBQgIdEU3+JZiaCRShJpinmGrjMEJH6ToJiS0qO/Pht90mistk8pUFmhTgHEd5MJi0Z/+bAPBvm/SyS9VMpLb/nQSNXsykIAomFYN7bUzNM45xJBpvlmC8tB7HcMiRD+ojWxzuMjnTvyBmcXnaIOKzsnVnVrtIjE7AjxR1jJlrcXmrW5vqSaUgNGNqTtk9wsEPLasQKVqBBYAkAKP/NcF4BImFiqRUBo1jRwmyKt/cJ7UiadxAAaTc1+1sGNh5A5JLwkCCDZHw34JKBhNYg/NdBZjgYQzcZJFs1KBedcSq/YZ01JN2eNLyIF4ST6+CMv69+Sai6pfyA1U0MSrwzPsAChNIjPSWcZR8MwzGI1Zhbe0UgpiRSUCgRWE/toojGzJADR0E2iGVObV6Afu17SB4kT5i0DIGxOxmkRjSPIhJQ1DizTrw8c7nepCclKeE2UTJIYxPzL4BNWqBNghZNe/0RhlnEkjEZIiIk86Ys0SROSUibyAYXY2HVd+LSj5lPZWNczj93bT8wxj2beTL/jbViA+M3VQaKw8Dw6a/tLpZpm4XiHnY/rX7MpeRsPzeGy2JL5xzKvsmNq7Pg84QJBgq8BS79JwpaVO40O7RFy8TZLc5befo0ZESBSqcoudlI7iRbB+1rwQuretWnwYRt8p+PN9y+rNpgNUYNB2W8waumNtTz6wJa1Ty+c//BL8WeyQVO2Ytbtn58ZQzhi9F2ftuTnZGuxYhUrapw7LUmkWqQs23fSeiTmFWgIBmZMFn+IUktd/3u+T2WP9xCaXPXPaLQFC14fz9LVvFWeB8kjjiRy4lS8xmmXbs54e3az8B7Mpp3b/sDa9T+ihtWYWVTHBY2kORV05WPE0Dlpae7XwvbAFPPZAwYgGls/lDBs5taNo3XaQ+bpc/hd345+Eu1YNuNhrqy56Nalcf5D6C2Zo8/07pneEerILbPJmvh8KCEk5osbq4wwoxuLjcejfTY5x/pYZdOcjQ659Yce6tLyB8Ov4zSfNNZ10ztIXfvDRitSXPvjI5J00/xq1Tci/ztrBo7nVdgoDGYiTVjys1/fUmIuYk2IjEEzlv2wFQs+E7UPEEze1mPh02ub8xbCbnTqgsW8+UkYqsxoCrtRk8xT9l1/LD8ee7J8gBHLFETZFbJlJoz2xafYHECiVPSWab6MbztrlkjrjLTsJQHtpDmxWpvZaO0axt9j11SmEBqfI2tR+OuwOssXu7vXAFJY0cs6jlVJDUckn+1ZpsPIAjYvXMvSHGv3OZuxAIJ+fIERBEIAeEklcMz5sWYgoXkX7dWjC1Fvd68ikpUlbtGhIGwYNg4bmPqRBA+KIlGsmVUm3RHm/eWhH09MaFYNDuzrMVv6sn/HFu8W+7Vc54TVIEejfh+kijDqJEpAiuy57461DDgY6NV3PytNqrGmCOZe5GSz0hD9+BxOL8cIG8AEhDkDm99VGUAqV6U53PTZMLTP1EaI91J376k+QJhciM98QT9l2sPC/Sy1ObtJPjtYYmZVbd6WSuCCwVit6xMoiGC93d17Ovo3Cqt01OuwSbHMK6lErLL0pA50xxwkeSffiVBEsN7pLixnvnJbHOplzYYqsrt12SDMI7ZZxBbeVWFm1YnuEtr7NLfta+JnoAvvx2LV/aybWYwpis1kHWuW7uhz1oUTa9r6HXTT/7oUaLqmQZiqXl+Iz0kUn/qqm+SJNR+Jivc5idk5sSHjWRZOEtPWT/tBBGsEIMyXptjkVZlx+VjMHaMfSaYZvhob8UG0CLRnnjJLT5j5lNWGTRAyx6Wdgz4CEPyPr+Sk9UOKt5uNoKRkGiIBlnL4yvpmhROTinAO+iSARMmoz6KqZ4VHag6aRdqDpqzvR/hpa/7HOoAwfgg7kaoKF1MzYF7/rINYxvxmzcSN6/vd8D/WAYRJGLKq7I2ly+Z5W+48C4/EQSyDHmyErIy5lDEGy5NS/2MdQBg/hEXrLKn6uphXWWb0ZYrLYNyyxmB9P0JwrNhPP29f7C6suLmvhXndP/huWkQ7dkKzourrZF65fZyV0hM2egW6+MK7+B7Ihe6eg1lgrwMI81FPNtw7C2aW5LbHsiQqxpmV0hOWFxnzCreYXOo+0i0ECJMPYbO7s2BmSUpLygQIxpp2M4u9UhW0ILLnJhvezTWxBn5I8X29rZl1g9XZqB7qf2LdKrjfXmjHPAxTMP3UtY3E9yOKaEfCu4UAYaJZbBHdNKt6NmDB2L8SJmxLTwbUkggnVBgUPZPMK7Rf54O4TnxZddbMis0cEkZK3TZmeFEy18iSUzJ0bdpKnHMiObhizaudKG8fX2ABQIovtUZHrCQjyotrQ3jJRNhoHhFelAzbb8uOPa2lJ6z2AK18vtik6FWhiYUfbbh3n/36LUpPch8JiqetiE4ixX3hRTE67AuS6I30a1ua+ZT5joTvGOGULU6kNQgaWmf9Y/sN9W1Fi2cl2bRpETb3kcoHk5i405aPYmkPvvULp87yRvPdzmxyMMvvuSbWECCF3w5BG9ZZR9tp0SKS0hLC/lULX1Y4MVJUPYmSX5QERhihnOece00sNGByImg3axslMa9SCgVJDsZnh5fM5+rh2Gt9MACjOXtmbuel7q6lvAkVapChFik8ijuLWoRV8YwEU3OKfVFiZk1D6YnkuyTkp6z7l8MV7YEXILG1SCqbPITRJO9KSkuw1n9f/l9J9+K2e++/fe1rUUUvN53uWJskcsVojyLnnDKxXCMmsy7xRZoszdjch5jTS3ihyWaWxJyMpT2wJV4NgkYPdd/aNm822IhW/iOpi0GNFmxz3MjXtEcixeq2tqaWnkiCIqA5I4AZ7UEDBA2ZMniJdG1iZEUSQakbODCfphaPsjkfrJHUHhPrribtGaVB8OLD3Ys7OuZ6cUGLbcdGtNAnUUBWKz6TCIBaTTwzmabRXJIUxDIZ38Pdu8vsEQ0QdGbrswq/I4I2kgU1zXGUgJ8hfhVtmlR6AtMKEUPwFPOQVgmtPUQmFhozVb5ox4ZB0bYph6okuQ9mM6tq0yQzS6Kx2e8hSrSHGCB4gfFFJPF59OkvB6iKnW6MKwF99bMtngFjhlS9BqlAIisWRNpDBRA2LyIJy9U9qiWNolTNXL7xSVPE102y3/HNEVxzC7ozD+mYG6n2UAEELzH3Z6Ede5cv2qbOOjOEzmsjkWaSK0VD5jTpXXw06Ml991Dd1jUnAlA8Y78SBZqzD2OBFJW0F40jctJdRwMtstE67MWVvhKHHX3XNU7PmldVg1xi2jK5ApZBY7aT+B0Yl9SGK7bmaqGo5ipvDSqAoDPWYZfEsNEvIw1iboivL0lpCWkH+4YM+p09xFbHCKKk1gpE4h3z9beVsERWAwQDMA472klMLXbR7AJD27ESDfM+/MJSP1FV5SMp+amTmYUkLKoUWL9DIEyX7GVwC3nnPXx7FQQQpgQFE5BIYScZ6lKKwoKbVPW+/Qj+XWJm1cWklZQpOQKxc7cMvmAvg1vUEjYIIBjUFjJ6D1WhncTRRXs2MqFdOPOepLSkTqYha2bVISciTQZi3/jv3Y9eRM3s+XibYIAMQOLPsKMdu3FuklU7vRLzCuYK+0EczUZJ3pEER6osPdFErAQm+Lp7diU0dG2jAITNjWBQ1mRxE2Q+eKJZOPMOW1rCqntmzFht2LlXVXoCcPz8p9vN/h1bREtmNbUm5zFpIlEAgo7ZqJbUH0HfVdj3EpOwSimcx11s9LAqM4udX3Z9vCAKN62iahDXGXOwCm0lJoDru2yQNCX3kQcQibNeZukJ5gXTFZUWkgf7/5z93gxhxgZFrcbnFE2D3AAJ549IJHQV5hZrotQh95HHaOwayhI+WrOKd8qNOiGYR8PoAGFDv5iQpF7LLaAsx/3Cs7spAVenXML4hFn6lgEQjUOO9QjAYdhTgtTGDhtFB4jEH0FbaWRLSjQJMbJtGelbZQCBWRdrZqV21LXgQKj/r1/+TzL5Gs/vyNI2CUAwAOuPaEEiCPcxvLSuDRPiZSMqqglEeokRQCmDDMglwZ9DcEbyCPd30WbLD2qz5UXzSgaQAUjOF35WOjsxzWUIICKYFJI8xVMUkk4tdWOtx6dF+MiQfEYIxqAyVwMOOOQw/YgnSr4jb5ykABmCxHtMF+2wkQAJJI70SeUoD5zKH9pY/Y0P1gCUYKpX3/2MiahIl5Kk/SQpDvMFa8BaUjwuUiWprcI8QF8JOKzfceTt7t7TKdaAPpMDZJhEhCbZwSxCo0nQr8SZY+aRbYNNhjQEU+GqIiLUKB2ilPaQ5DiMhPmnWofW36gjOEoBCAYZRragSTYznMDmIMb7Sm1yMXOf5TZak0oBDtXpQM3eJNcgblLstUGuvSbT6t5NZXJpCDwr72hNKtBHFq3CG72jF7t7T5RB29IAgsUwH+XJLpqJJOURCSbX82d+E+3DmWVsRhPHgNaAMNP4jlgv9gmBFv4cTZpwbh7tSwWIBiSSA0CTFpkyStNEho41Z1cyggCG1BF3c0D0EeDgfbpywYF5lg4QDUg0tVtZRsAGnPzVb82bS7+LxR8z3U+Ir+EIJ6itGr5SPjgqA4gGJFDhSHppVblT58de+XUjL82uAyJBe5i9khtHxucNYfXi2U+F4eXOCfuZtOMpEoE+ulaiQdykho47QsBUdAvvhTjvblyYXa+9+98tUHzcMfwdoeHHH/zDfj5Ia045AQVwkAnANc1RFTgq1SBubwYh4I0WJMVXCGX3MtQvcX3h2tOX7IY18TMMJG8HNYPGePSBLcHAwCTk/gbeKi9alUeoSjWIm5Q0mYj3YphcWXsY90S1QBlQBD4GLqEL1RjoS2dSoWy9d/RSd++pIIRHeLkWAME6NCDBezFMrixQUH6RqrYrwn4l6wKmE4TOEw/eHeRjZCeIEC4Ej5CeK6nLRyRErHBvPScAAARQSURBVA1A3KQlVcDuHW3FaB6hIPVQjDgLfgq0xc6tVmPYqz5DAiBZWjqtARryIVz00Fnumc5BzQ2IEqaXtK0dQDD5Xd1zT1ti2euEZA97QEjSK6Qf/mtScaJvfdAWMJ/gX8QChRsTtILWgPYQPkurtmT9ne7CsvC9pM1rCRCseBDh6r0ucd7x3qQK3FgURPQFG3/+w8GfTXoABOdb4O8h0ahJ61b6GsOuqgvj+vawtgAJMbnwboxklo94AMx7nww0TN0A4wDxR1u+Z/Za8yk2IBxtAIxzH/y+rzVk5lS/h9o443l7XXuAhJhceDeF2ZUnQR1QPv/qiq0tuip1Tn14nPg7GB95ClfKDkDce+et0U2nSYMHmFPobtGaVEfqZlKNr7MRAAkxudyCARREaKSn21Rcm3kJRXjQLgghf2GB87WVuAAPHkhcJ3WzIWYn7W+7Zb4v+d1/eKcPhk239AHgwJFKO+StPRAYK9ZsPr7RrJ6qIjMu3c/GACRjclF3AecRoiqgSDembu0BZBe2DTAnaxXCZWjcOIDc0CbXX7J/p04pTiJECxSGPQZaLgIwGmNSNdbEmrSd2nBwti/E/2F6sZ8a5tiq+a3c2fsIEbslm/g7nvLceEpqN1KDZAky/BwczK7DIYRKmRsImVeZ72a1RYQz643yNfLo3HiAuIVp8yaTCOOyyzDDynaAywSEGwtONzSFPPM9ebaWqU5fM9eO1j1CxdB6agByw4lHFn7uKWmCMY9YMMFQigHQxM46MxuUoo3TFA4YAU73+PQW7ccybZHhrqUU866iz6kDSCqgoF9okz33327u3XJrlErXsjZ8HBARzKfxqVtA9F5uSuhWQvepBUhKoLi+HWB2bt3c1y510TAOENmyGEWWm+GjRQuMM9MIDLf4qQdIGUDJchISkQBKNqHnMt0Mx7Ft3OVv7jI7JCFhMiXQDpOmtGgZ53jIxzHZdVbdbmYA4giNL2HNm86hnjEHyiY+wDOaHZ/vT+E2ZMtv3tD/uwsK9LPsV6/1M+/fXFldy7jj378e/n8irZBHFhuVMkvT5mP4eGDmAOIIMggPzx+O6dD7iN3Q3y0wOqfsOY2Xp8n5ZvdiZgGSJdDgQrvOodBcCkv0BrRbsYyxeN3MHb/JfLvchJqpVDRtATJG2WF2/jH7z/tSEb2m/Q5NqN7LN5nV07MMiuz+tAAp4NbBl3vnHrGaBWBR133VFBCYVh8U0x6JCqF/CxCSevBZvjXzBzoDwMDBp+/yIocoo9lQS1w/a8yG07NuPjEEbwHCUGlCm4Hf0rNaZW6rBQy0Sx1NshYQyv11r7UACSRg9nVomatmft+cMdtKBA5AsGw3EjeCLBtz/ZOO6SzZWqhl+1XAldaXCNvgFiBh9KPfxg2Sc+amzT2zasHTvzXcmmiD2yQ7Zn6rvaDC/mY2238Hw9sPxHTwZ//vg/9f/coy/vA3/Pv8Umsi0eRXN/x/hGzEwafXnVgAAAAASUVORK5CYII=;" vertex="1" parent="1">
          <mxGeometry x="60.44" y="-634.9999999999999" width="60" height="60" as="geometry" />
        </mxCell>
        <mxCell id="59596a_35e80KVfduihG-37" value="" style="shape=image;verticalLabelPosition=bottom;labelBackgroundColor=default;verticalAlign=top;aspect=fixed;imageAspect=0;image=data:image/png,iVBORw0KGgoAAAANSUhEUgAAAMgAAADICAYAAACtWK6eAAAgAElEQVR4Xu1dS6xcRXquvtcGpIHYA9IYiITtURiINBG2lAgGP/BdTfAGWwpkaZssZpMMeBXFLGgvIMpq7GQ2bMAsgUjYG8isuH4CShQuSjSBQRouSAE8EpNLIJINvu7U1911fbpvn1Pf/1fVeXSfIyEbd516/PV//7vqdEz7JKfAvu5bm781N20zZnUHBusYs9kN2jO9zR0zvykzicxvq58M/r2z3DNmZd50Vq6bOfvftyvvdBeWk0+8HQB71T6hFHAA6JnVbXPGWCDMbTWmBzCA2e3/3wBE6Fjr3+8sd0xv6bq5/n7PdJYs2JYvdXctxR9nNntsAaLYdwDimtmwwzLlvo6Zeyw9CBSTtFonC5ybzeriYndhRdPTLL/TAoTYfQDiqpm3YOjtqC8giIUYs2jNNatlemcudPfYv7ePjwItQHIotLt7fp81Wax26O2zTfq+w7Q9dvNPwzQzZsPp1iybvLstQDJ0ebh70QLh2oGhlphKUBSA3JpfnVOtdhml0MwD5KHuW9axnjs8o6DIw8tSz1w/Y7XLqVmPls0kQJxPMWc6z9bTwa6PMTcww3pnLnX3nqrPrMqbyUwBZBCOnXvahkIPWd9iW3lk5ke69ZYN5psr1/gXSm3ZObFqvjs5S1plJgACYHxnNlpt0Tts+WktEZeat8Dsd22+2dy5+ZbBn5sGf+Lf8eDP226ZH/n/7JwAFPz39ZXV/p8OOPj/L1aumM+/umL/vGreW/4q9VJG+odWuWauHZ0FoEw1QOB0W6cT2iIpMMDoO7dtWgPBvXd+bw0YZXEuAPPRF/9nPreA+ejyN6UAZxaAMpUASQ0MAAIg2Ll1k9lz/x0jWqEsQLDjnP/gyz5w3vvkq2SaBkCx8zk5jbmVqQJIKlOqSYDwAScxYBatQ3/y7e5eAGYqnqkByE+65w7YcO0vYjnfDhRPPHh333xyfsNU7HpmEa++85k5/+GXkbVL55R15o9Pg4/SeIAMMt7GAiNOthtg2HPfHWb/jh9MLSgmgbxvhlln/9V3P+sHAOI8vaMXu3tPxOmrml4aC5CY5hT8CYAC/gT+PusPzLBzVqu8ufS7GKSwSce5I00tZWkkQB7unrOZ7w60RlDIFtriyUfu6ZtQ7TOZAjDB4miVzomL3d1Hm0bnRgFkqDXgZyBsq34AiJ//9IetthBQMBJQVuwBsaNNyso3BiDD6tqXtE64c7rLBgaSe/3cxBeD3MQ3V5H4Q9JvNPnnEoLgWSQP8WDON/4b/NtdNtl4p0023mWTj1VovjhA6Zyy2uSIAJ+VNa09QEJ9DZfEgymV0r8Ag8PRxX9f2Aw3HF4Ao4yyEfhOt1pQATwATRnAecP6Jy+e/TTEoW+Eb1JrgAxP7r1ko1QHNCIkpSnlAAEgIExaFhhYOmDtLviQEjAAyj/+6rdqQWBNLuvA17cQsrYAGYZvX9c44tAa0BhPPHQ3y09UO4ChroDwLaAfodtis/+JNMxzZ34TEPWqrwNfS4A83D3bteczUIouegAMJPYAjFiJPeQEICWhJWA+TcODgkkABrRCIWWsB/R53gJFSaelVXPtYN2Si7UCSEiUKqY5BfPpnM0FvGaTZsrNjsVzyftxidGY2haOPMwuzWNLVQ7WqVSlNgDR+hsxzSmYT2+8f9mc/+D3aptawxR1eQdaZf8DP+hrl9AHQuakBYku2VifDHwtADLQHBvgb+yTbAyk3zOP3RtsJgAYkHjTri1Y2oKuj1qg7N+xhX0lt51em9QDJJUDZFiabsEhO+EHkwCOeIiv0QKjmP8RBXvc+imhQIHg+btX/kscErbn4o9f6j7SDUZpQAeVAkQTqQIgoDVCzIAWGDKOiQUUTaQLZ03sOZODshnHa10ZQDT1VKEmVQuMMMYBUI499qOghKvS5Fq82N2zEDZ73duVAESjOVxeQ2NSwWFE1hfh2jIy27qtaM5bMG9RsqN9lCZXJSApHSADn+P6W5a4VCUuAIHNwPkMzQOtgdg8Mt3tE48Cg33ZrvZPIKj+5uX/kAZGlqwm2RlvFf6eSgWIBhxafwNSCloDZxvaJx0FYHb9/V/+sTqSCJAIb2UpVZOUBhBptCrEGYedC3C05lQ6YIz3DC2vTTbKnffyqoFLAQiu95w3G61ZxYVyUf7wy0M/FkulsORUecw0rSMhiAJtovETkYeCYOOfcvIkyQEyTALC56Aug9aq7NbX4FkrZUuA458O/Ykq0vXi4qd9zc8+ZVQCJwWItHwE4ABxpRKoNalYliqvndbkQqQRQRX2sQy8kPI+rqQA2dW9gOOxTzOL1YCjNakYylbXRmtyIbCCzDv72Eshdqa6FCIZQHZ1z1lg9C9W8D4anwPgABGFERDvXNoGcSmgEXyYgTChuLLRXNue4hNzSQAiCedqbFaEcI+98us2txGXl5P1ptljTEYY3UoS/o0OEIlTDsIh6iE5EtqCIxkfJ+1YCxJYCXwuK35kKzpAbBnJ68wZck2eA+YUCNbmN5LyctLOEYSRCERMRpJMjO2PRAUI63dowPHG0mV7ZuPjFhxJ2beczo/ZamxJCb2wLGXFlqN8P9ZKogFEUoCIwsMn991Dr6EFB02qxjTUgOTwC0vUmZKYJfJRADI8S/4ekyl/1BYdPmNLptkHPgdUbGtWsRRrTjupuQUTG7zAPLHOtkcBCJvvQDj31M920InAFhwMKzS7zUs/2ynKukuy7TH8kWCADE0rlJIUPtKIFa7bgbRoy9R9lG3275rolsBpDy6PDwKI5LIFSemB0ClrNoe0s+9bFP/81J/SlgX4g/VHQk2tIICwF7xJ/I42Qz6biMFldjC32Do8gT8SFNVSA2RQwr7BOubFJwOlfocsMTSbzDStq0Z+BI47+/Al8vqrTdUAYROCkkiFsP6GpWPbrkEUkJjiWBbrj9hrTbdrrjVVAWR4I4n9VkfxIznc30asfNScnd8lkS0Ec/7i5L8xxFHVaokBMnTMP/aZVhLHq3XKmf2dnTYS3gFVWFNL47CLAcI65hJVyS5wdlikXanEHxFEtcQOuwggrPaQLK71O1ow5FFAUo7CH7KSVfyKAMJoD0niB/Yj4tltGUkLkjwKID/CfsOEjICKtAgNEFZ7SAoRyQW13DPDFJBYIxC0f/4P73ipJbnsgQYIoz0kOQ9eJXrXO9IARzzdt89d0kl4Mk024Ay2Bl333H+7+StblY09d99rfO7MR1S1rZRkOFTHXlZO1mrRWoQCSGztkSpqVfRJBISRj7yAvGb7hFDAd5YnhTDCmP/ytw9R02YddlaLUACJrT1IlFMEcY1QzvKUvd2vqFShjZaJSDqxMZPbSmE6S8qVOP7qLNtvtW/3UcQLkNjaI4Vjzt6cAemCpFIbFPCxRf7vkORMvRS0dewvdrEJRNYXYfIiXoAwx2gliR22NIDdQonfgz7hxLUAYam7vt2FZ3dTL7OmDtXZsBEEIUDCPJwWMd5yeAIg53HWY1/RpNjIVWzHXHrGpAUIw1rFbViAoJcUfh+bG2G1iK9GqxAgw/utCj3bKrUHC0y35YIS6XBOmtIeWDPHLT92Ihhl8a899WcUdTmfs/imeA9AznY7Zu7ZGNojNnNqrrWMbd5RuzRljWDSInkneWLTnQ37klqkMOSbCxDGOa9Ke0iy9akkmYRBpq2tpM4OaycZlSaTxBdhws5FId9cgPyke+7AnOng2+W5D5I3QLPvia09mFBjdk5tKb1vh+S/S00thlEls2DH58CZb2blAoQ5EMWquphxcYnWctKLPb+c3SBIqT333dHP4CI0jcsjXn33sySZYgljhLYF/Z6w3z6HiQrm0a6rrH3IW69EiyC0jz0seHLNrIkAYZxz1haNHcmQOOZgAJQ/8He7DkhYlHSMLQlDGV7yfux1SeqkME/ptz98a2O1CDNunpmVA5B4zjkXSfCRYvC7VGppxvY5/yni+9zqw1ox+SKNM82a2SHaPG/lbHadMbPybmOcCBB7EZw9MVj8PUGmDDl25lqiPTQ5F4aJUkjCMNbn3mZopwU/a2pjpmQCj1qURGAymn9STmQdQBjzilWtGibNowyIgVsZ2bMBUmkoSToyEona4RIbsUwsOOO9NnvW3HZahClJZ0nDJg45Xlx/mGodQJjSEjbMF9M5l6hyjhijW8CuCW/F9qtYZghpx9rrGENDv2P2vuX9tmCUeRhpzvSDNqywRlufsz7JzFoHEF/0ilVrsc0rVgKCENJCOQmRtQzEbniqdhIBoKGhRItoAFhEF8bcx/uET7oumjVBgxT7H6wkj1liwIISRGAiFuPEloAP70rNN4bpwWAIXbrQqycsyXQ50kbCwFotyWqR2MKTBT8DzHE/ZAQgzEXUjLMXm4lYUGokn1R7xAI+QO9OPqK+aFIJOTYUeQpIvhgPy0huLKkmlhxsimlmScb1V3OP+iEjAGEORjE3Jca20VkJrxmX7dtJ1dBvlThgwF5nzlVgXEjckxYkb9pviIc+zP65MTT0ZM0dRppL1sqO69P+437ICEB2dYtL21mkxpKyjkDs4qXjSrKx2hBodpPZg115jAGzC4GPkINI0migz7EdnyurpWJHAtlxiTDziB+yBpBhceL/FKGWNXViRq8ktrN0XNZcBE1CTYJQcLh9iXGeX2JWSoUOK0SxHin4YvAmA8ysH7IGEKY4kXXCHj/5r9E+fMOCkln4OIFZcyO02DIWOLIgCT06zIZ9NXRlNX6o0MnupwSYEj9kDSCM/8EsXGO3FkkGtnJXatNKCCrVTOMbJ/k4DGt3axJ64+Yee3xVKulZQUqEXVly9NuxAs8HzKwfsgYQX/6DtdelKtlHAdYM8i16fBxWM4UCnp2/jw6Tfg8BLvpjBB7aSRmZpS3hD4jIwtKaSAWs+SFrAPHVX7GFYaGbNk4RVhpJx2X7DQG8JH8j4oRh41Atwjq2Uu3M+jjSfn00YoHJmI0bzbXvL3YXVvoAYRx0lph++863zNHf2TCsL3w3PirbrxR42XFYiSajyGjrkPmxDCX1wdjASmyASASSj0/dF3L7AGEKFBmGCjVHJjEK60xK7WTWXpX2m10DQ7MQcODdECZj/TCppmL7TcEv7L76k6CDhOEQIOcOd0yn8ItRjL36xtJl87w9oBTzYcbFeLuPXxANm6rf7CTYMUQTH2scAhB0xVwEx5gk42tgrgfS9OujFWvp+Pyqnrl+/FL3EXtpiX2s//ELe/7j6aLBmQWH2Ot5YzPjSiUcyxiafrPrYObu23Df76FMxmpoqQBigKcRbD56sFFPX4DARbL6AIkVwQqxhyctnFXVGiZhmFfTr1sHG/XzbTjzu5R5s32yAPHZ7OPzTNWvjx6sX0Vo3v6ti06DFJ4gZCNYMROEjhCMJNIwcqp+3bxZcPs2nPldyrwaM1AKQta8lPbrowdLd8I66Id6O0wEi1VbsRcLYrCEljJJagnHbpRvw32/hzq6jCYlmGndNFP166MHaz4zQhWh3k6dI1hYbLyoxChpU/WrMV+YTc9rQ5gKud2z4VgpCFP1y9KJFX6+CKU1rxY6zBkQZsCQjSpaOJvQk+ZBYkU7iubOjsFu/KR2IYER1jIgMs8jU2P9L2m/LJ1Yuvt5pneUAghj5oRsVAwm84Xtxsdgk3jSJFl2HNZhZDd+Ujv/Juf3zuZppHvL+qzSflk6sXvr5xkLkIe7/hwI49D6wmbs4rSM7F/saM9sOQTe8qniorUx2ldLmxCtLck6S6OTrGZKxTPs+D6eQS6kw9xiwjhcvsG0TMBKYY0jyWhGzDtE0kmAKKFR6LkQVspqzo+zmklaYMrSh9VgPoD2AcKUuTMASbVY1uHTSHrWvwk9TcgyDMsAoaCVaA+plpL0LdVMLH1YoeoXfJ0TVoMUZ9FZBk21WBCFlfRSLcYSEnOQMkp2MzWfayhiBji3WCuAq3lY7YG+pfvK0pQJs2rWhnfYOfiDBJ1TAIitweodzpsMG5GQElKyeFbSS5lYmqsI1ZJsaLmINpB6L579VA0O1vzAHDSak9WW0r2S8Atr1vrmgHITRLFe7xlzIBQgIdEU3+JZiaCRShJpinmGrjMEJH6ToJiS0qO/Pht90mistk8pUFmhTgHEd5MJi0Z/+bAPBvm/SyS9VMpLb/nQSNXsykIAomFYN7bUzNM45xJBpvlmC8tB7HcMiRD+ojWxzuMjnTvyBmcXnaIOKzsnVnVrtIjE7AjxR1jJlrcXmrW5vqSaUgNGNqTtk9wsEPLasQKVqBBYAkAKP/NcF4BImFiqRUBo1jRwmyKt/cJ7UiadxAAaTc1+1sGNh5A5JLwkCCDZHw34JKBhNYg/NdBZjgYQzcZJFs1KBedcSq/YZ01JN2eNLyIF4ST6+CMv69+Sai6pfyA1U0MSrwzPsAChNIjPSWcZR8MwzGI1Zhbe0UgpiRSUCgRWE/toojGzJADR0E2iGVObV6Afu17SB4kT5i0DIGxOxmkRjSPIhJQ1DizTrw8c7nepCclKeE2UTJIYxPzL4BNWqBNghZNe/0RhlnEkjEZIiIk86Ys0SROSUibyAYXY2HVd+LSj5lPZWNczj93bT8wxj2beTL/jbViA+M3VQaKw8Dw6a/tLpZpm4XiHnY/rX7MpeRsPzeGy2JL5xzKvsmNq7Pg84QJBgq8BS79JwpaVO40O7RFy8TZLc5befo0ZESBSqcoudlI7iRbB+1rwQuretWnwYRt8p+PN9y+rNpgNUYNB2W8waumNtTz6wJa1Ty+c//BL8WeyQVO2Ytbtn58ZQzhi9F2ftuTnZGuxYhUrapw7LUmkWqQs23fSeiTmFWgIBmZMFn+IUktd/3u+T2WP9xCaXPXPaLQFC14fz9LVvFWeB8kjjiRy4lS8xmmXbs54e3az8B7Mpp3b/sDa9T+ihtWYWVTHBY2kORV05WPE0Dlpae7XwvbAFPPZAwYgGls/lDBs5taNo3XaQ+bpc/hd345+Eu1YNuNhrqy56Nalcf5D6C2Zo8/07pneEerILbPJmvh8KCEk5osbq4wwoxuLjcejfTY5x/pYZdOcjQ659Yce6tLyB8Ov4zSfNNZ10ztIXfvDRitSXPvjI5J00/xq1Tci/ztrBo7nVdgoDGYiTVjys1/fUmIuYk2IjEEzlv2wFQs+E7UPEEze1mPh02ub8xbCbnTqgsW8+UkYqsxoCrtRk8xT9l1/LD8ee7J8gBHLFETZFbJlJoz2xafYHECiVPSWab6MbztrlkjrjLTsJQHtpDmxWpvZaO0axt9j11SmEBqfI2tR+OuwOssXu7vXAFJY0cs6jlVJDUckn+1ZpsPIAjYvXMvSHGv3OZuxAIJ+fIERBEIAeEklcMz5sWYgoXkX7dWjC1Fvd68ikpUlbtGhIGwYNg4bmPqRBA+KIlGsmVUm3RHm/eWhH09MaFYNDuzrMVv6sn/HFu8W+7Vc54TVIEejfh+kijDqJEpAiuy57461DDgY6NV3PytNqrGmCOZe5GSz0hD9+BxOL8cIG8AEhDkDm99VGUAqV6U53PTZMLTP1EaI91J376k+QJhciM98QT9l2sPC/Sy1ObtJPjtYYmZVbd6WSuCCwVit6xMoiGC93d17Ovo3Cqt01OuwSbHMK6lErLL0pA50xxwkeSffiVBEsN7pLixnvnJbHOplzYYqsrt12SDMI7ZZxBbeVWFm1YnuEtr7NLfta+JnoAvvx2LV/aybWYwpis1kHWuW7uhz1oUTa9r6HXTT/7oUaLqmQZiqXl+Iz0kUn/qqm+SJNR+Jivc5idk5sSHjWRZOEtPWT/tBBGsEIMyXptjkVZlx+VjMHaMfSaYZvhob8UG0CLRnnjJLT5j5lNWGTRAyx6Wdgz4CEPyPr+Sk9UOKt5uNoKRkGiIBlnL4yvpmhROTinAO+iSARMmoz6KqZ4VHag6aRdqDpqzvR/hpa/7HOoAwfgg7kaoKF1MzYF7/rINYxvxmzcSN6/vd8D/WAYRJGLKq7I2ly+Z5W+48C4/EQSyDHmyErIy5lDEGy5NS/2MdQBg/hEXrLKn6uphXWWb0ZYrLYNyyxmB9P0JwrNhPP29f7C6suLmvhXndP/huWkQ7dkKzourrZF65fZyV0hM2egW6+MK7+B7Ihe6eg1lgrwMI81FPNtw7C2aW5LbHsiQqxpmV0hOWFxnzCreYXOo+0i0ECJMPYbO7s2BmSUpLygQIxpp2M4u9UhW0ILLnJhvezTWxBn5I8X29rZl1g9XZqB7qf2LdKrjfXmjHPAxTMP3UtY3E9yOKaEfCu4UAYaJZbBHdNKt6NmDB2L8SJmxLTwbUkggnVBgUPZPMK7Rf54O4TnxZddbMis0cEkZK3TZmeFEy18iSUzJ0bdpKnHMiObhizaudKG8fX2ABQIovtUZHrCQjyotrQ3jJRNhoHhFelAzbb8uOPa2lJ6z2AK18vtik6FWhiYUfbbh3n/36LUpPch8JiqetiE4ixX3hRTE67AuS6I30a1ua+ZT5joTvGOGULU6kNQgaWmf9Y/sN9W1Fi2cl2bRpETb3kcoHk5i405aPYmkPvvULp87yRvPdzmxyMMvvuSbWECCF3w5BG9ZZR9tp0SKS0hLC/lULX1Y4MVJUPYmSX5QERhihnOece00sNGByImg3axslMa9SCgVJDsZnh5fM5+rh2Gt9MACjOXtmbuel7q6lvAkVapChFik8ijuLWoRV8YwEU3OKfVFiZk1D6YnkuyTkp6z7l8MV7YEXILG1SCqbPITRJO9KSkuw1n9f/l9J9+K2e++/fe1rUUUvN53uWJskcsVojyLnnDKxXCMmsy7xRZoszdjch5jTS3ihyWaWxJyMpT2wJV4NgkYPdd/aNm822IhW/iOpi0GNFmxz3MjXtEcixeq2tqaWnkiCIqA5I4AZ7UEDBA2ZMniJdG1iZEUSQakbODCfphaPsjkfrJHUHhPrribtGaVB8OLD3Ys7OuZ6cUGLbcdGtNAnUUBWKz6TCIBaTTwzmabRXJIUxDIZ38Pdu8vsEQ0QdGbrswq/I4I2kgU1zXGUgJ8hfhVtmlR6AtMKEUPwFPOQVgmtPUQmFhozVb5ox4ZB0bYph6okuQ9mM6tq0yQzS6Kx2e8hSrSHGCB4gfFFJPF59OkvB6iKnW6MKwF99bMtngFjhlS9BqlAIisWRNpDBRA2LyIJy9U9qiWNolTNXL7xSVPE102y3/HNEVxzC7ozD+mYG6n2UAEELzH3Z6Ede5cv2qbOOjOEzmsjkWaSK0VD5jTpXXw06Ml991Dd1jUnAlA8Y78SBZqzD2OBFJW0F40jctJdRwMtstE67MWVvhKHHX3XNU7PmldVg1xi2jK5ApZBY7aT+B0Yl9SGK7bmaqGo5ipvDSqAoDPWYZfEsNEvIw1iboivL0lpCWkH+4YM+p09xFbHCKKk1gpE4h3z9beVsERWAwQDMA472klMLXbR7AJD27ESDfM+/MJSP1FV5SMp+amTmYUkLKoUWL9DIEyX7GVwC3nnPXx7FQQQpgQFE5BIYScZ6lKKwoKbVPW+/Qj+XWJm1cWklZQpOQKxc7cMvmAvg1vUEjYIIBjUFjJ6D1WhncTRRXs2MqFdOPOepLSkTqYha2bVISciTQZi3/jv3Y9eRM3s+XibYIAMQOLPsKMdu3FuklU7vRLzCuYK+0EczUZJ3pEER6osPdFErAQm+Lp7diU0dG2jAITNjWBQ1mRxE2Q+eKJZOPMOW1rCqntmzFht2LlXVXoCcPz8p9vN/h1bREtmNbUm5zFpIlEAgo7ZqJbUH0HfVdj3EpOwSimcx11s9LAqM4udX3Z9vCAKN62iahDXGXOwCm0lJoDru2yQNCX3kQcQibNeZukJ5gXTFZUWkgf7/5z93gxhxgZFrcbnFE2D3AAJ549IJHQV5hZrotQh95HHaOwayhI+WrOKd8qNOiGYR8PoAGFDv5iQpF7LLaAsx/3Cs7spAVenXML4hFn6lgEQjUOO9QjAYdhTgtTGDhtFB4jEH0FbaWRLSjQJMbJtGelbZQCBWRdrZqV21LXgQKj/r1/+TzL5Gs/vyNI2CUAwAOuPaEEiCPcxvLSuDRPiZSMqqglEeokRQCmDDMglwZ9DcEbyCPd30WbLD2qz5UXzSgaQAUjOF35WOjsxzWUIICKYFJI8xVMUkk4tdWOtx6dF+MiQfEYIxqAyVwMOOOQw/YgnSr4jb5ykABmCxHtMF+2wkQAJJI70SeUoD5zKH9pY/Y0P1gCUYKpX3/2MiahIl5Kk/SQpDvMFa8BaUjwuUiWprcI8QF8JOKzfceTt7t7TKdaAPpMDZJhEhCbZwSxCo0nQr8SZY+aRbYNNhjQEU+GqIiLUKB2ilPaQ5DiMhPmnWofW36gjOEoBCAYZRragSTYznMDmIMb7Sm1yMXOf5TZak0oBDtXpQM3eJNcgblLstUGuvSbT6t5NZXJpCDwr72hNKtBHFq3CG72jF7t7T5RB29IAgsUwH+XJLpqJJOURCSbX82d+E+3DmWVsRhPHgNaAMNP4jlgv9gmBFv4cTZpwbh7tSwWIBiSSA0CTFpkyStNEho41Z1cyggCG1BF3c0D0EeDgfbpywYF5lg4QDUg0tVtZRsAGnPzVb82bS7+LxR8z3U+Ir+EIJ6itGr5SPjgqA4gGJFDhSHppVblT58de+XUjL82uAyJBe5i9khtHxucNYfXi2U+F4eXOCfuZtOMpEoE+ulaiQdykho47QsBUdAvvhTjvblyYXa+9+98tUHzcMfwdoeHHH/zDfj5Ia045AQVwkAnANc1RFTgq1SBubwYh4I0WJMVXCGX3MtQvcX3h2tOX7IY18TMMJG8HNYPGePSBLcHAwCTk/gbeKi9alUeoSjWIm5Q0mYj3YphcWXsY90S1QBlQBD4GLqEL1RjoS2dSoWy9d/RSd++pIIRHeLkWAME6NCDBezFMrixQUH6RqrYrwn4l6wKmE4TOEw/eHeRjZCeIEC4Ej5CeK6nLRyRErHBvPScAAARQSURBVA1A3KQlVcDuHW3FaB6hIPVQjDgLfgq0xc6tVmPYqz5DAiBZWjqtARryIVz00Fnumc5BzQ2IEqaXtK0dQDD5Xd1zT1ti2euEZA97QEjSK6Qf/mtScaJvfdAWMJ/gX8QChRsTtILWgPYQPkurtmT9ne7CsvC9pM1rCRCseBDh6r0ucd7x3qQK3FgURPQFG3/+w8GfTXoABOdb4O8h0ahJ61b6GsOuqgvj+vawtgAJMbnwboxklo94AMx7nww0TN0A4wDxR1u+Z/Za8yk2IBxtAIxzH/y+rzVk5lS/h9o443l7XXuAhJhceDeF2ZUnQR1QPv/qiq0tuip1Tn14nPg7GB95ClfKDkDce+et0U2nSYMHmFPobtGaVEfqZlKNr7MRAAkxudyCARREaKSn21Rcm3kJRXjQLgghf2GB87WVuAAPHkhcJ3WzIWYn7W+7Zb4v+d1/eKcPhk239AHgwJFKO+StPRAYK9ZsPr7RrJ6qIjMu3c/GACRjclF3AecRoiqgSDembu0BZBe2DTAnaxXCZWjcOIDc0CbXX7J/p04pTiJECxSGPQZaLgIwGmNSNdbEmrSd2nBwti/E/2F6sZ8a5tiq+a3c2fsIEbslm/g7nvLceEpqN1KDZAky/BwczK7DIYRKmRsImVeZ72a1RYQz643yNfLo3HiAuIVp8yaTCOOyyzDDynaAywSEGwtONzSFPPM9ebaWqU5fM9eO1j1CxdB6agByw4lHFn7uKWmCMY9YMMFQigHQxM46MxuUoo3TFA4YAU73+PQW7ccybZHhrqUU866iz6kDSCqgoF9okz33327u3XJrlErXsjZ8HBARzKfxqVtA9F5uSuhWQvepBUhKoLi+HWB2bt3c1y510TAOENmyGEWWm+GjRQuMM9MIDLf4qQdIGUDJchISkQBKNqHnMt0Mx7Ft3OVv7jI7JCFhMiXQDpOmtGgZ53jIxzHZdVbdbmYA4giNL2HNm86hnjEHyiY+wDOaHZ/vT+E2ZMtv3tD/uwsK9LPsV6/1M+/fXFldy7jj378e/n8irZBHFhuVMkvT5mP4eGDmAOIIMggPzx+O6dD7iN3Q3y0wOqfsOY2Xp8n5ZvdiZgGSJdDgQrvOodBcCkv0BrRbsYyxeN3MHb/JfLvchJqpVDRtATJG2WF2/jH7z/tSEb2m/Q5NqN7LN5nV07MMiuz+tAAp4NbBl3vnHrGaBWBR133VFBCYVh8U0x6JCqF/CxCSevBZvjXzBzoDwMDBp+/yIocoo9lQS1w/a8yG07NuPjEEbwHCUGlCm4Hf0rNaZW6rBQy0Sx1NshYQyv11r7UACSRg9nVomatmft+cMdtKBA5AsGw3EjeCLBtz/ZOO6SzZWqhl+1XAldaXCNvgFiBh9KPfxg2Sc+amzT2zasHTvzXcmmiD2yQ7Zn6rvaDC/mY2238Hw9sPxHTwZ//vg/9f/coy/vA3/Pv8Umsi0eRXN/x/hGzEwafXnVgAAAAASUVORK5CYII=;" vertex="1" parent="1">
          <mxGeometry x="-101.06" y="-634.9999999999999" width="60" height="60" as="geometry" />
        </mxCell>
        <mxCell id="59596a_35e80KVfduihG-45" value="&lt;div style=&quot;font-size: 18px;&quot;&gt;&lt;font style=&quot;font-size: 18px;&quot; face=&quot;Times New Roman&quot;&gt;Resource Allocation Strategy&lt;br&gt;&lt;/font&gt;&lt;/div&gt;" style="rounded=0;whiteSpace=wrap;html=1;fillColor=#dae8fc;strokeColor=#6c8ebf;gradientColor=#7ea6e0;" vertex="1" parent="1">
          <mxGeometry x="452.94" y="-10" width="220" height="40" as="geometry" />
        </mxCell>
        <mxCell id="59596a_35e80KVfduihG-46" value="..." style="text;strokeColor=none;fillColor=none;html=1;fontSize=24;fontStyle=1;verticalAlign=middle;align=center;strokeWidth=2;fontFamily=Times New Roman;fontColor=#000033;" vertex="1" parent="1">
          <mxGeometry x="180" y="-635" width="101.06" height="41.16" as="geometry" />
        </mxCell>
        <mxCell id="59596a_35e80KVfduihG-49" value="&lt;div&gt;&lt;font color=&quot;#000033&quot;&gt;&lt;br&gt;&lt;/font&gt;&lt;/div&gt;&lt;div&gt;&lt;font color=&quot;#000033&quot;&gt;Available MEC Servers&lt;br&gt;&lt;/font&gt;&lt;/div&gt;" style="text;html=1;strokeColor=none;fillColor=none;align=center;verticalAlign=middle;whiteSpace=wrap;rounded=0;strokeWidth=1;fontFamily=Times New Roman;fontSize=21;fontColor=#FF8000;" vertex="1" parent="1">
          <mxGeometry y="-700" width="220" height="30" as="geometry" />
        </mxCell>
        <mxCell id="59596a_35e80KVfduihG-52" value="All MEC Servers" style="rounded=0;whiteSpace=wrap;html=1;strokeColor=#6c8ebf;strokeWidth=1;fontFamily=Times New Roman;fontSize=21;fillColor=#dae8fc;" vertex="1" parent="1">
          <mxGeometry x="-560" y="-640" width="200" height="70" as="geometry" />
        </mxCell>
        <mxCell id="59596a_35e80KVfduihG-53" value="" style="html=1;shadow=0;dashed=0;align=center;verticalAlign=middle;shape=mxgraph.arrows2.arrow;dy=0.67;dx=20;notch=0;strokeColor=#36393d;strokeWidth=1;fontFamily=Times New Roman;fontSize=21;fillColor=#f9f7ed;" vertex="1" parent="1">
          <mxGeometry x="-283.5" y="-630" width="100" height="60" as="geometry" />
        </mxCell>
        <mxCell id="59596a_35e80KVfduihG-54" value="&lt;div&gt;&lt;font style=&quot;font-size: 16px&quot;&gt;$$ User \ Movement&amp;nbsp; \ Model $$&lt;/font&gt;&lt;/div&gt;" style="rounded=0;whiteSpace=wrap;html=1;fillColor=#d5e8d4;strokeColor=#82b366;" vertex="1" parent="1">
          <mxGeometry x="-561" y="-297.5" width="201" height="40" as="geometry" />
        </mxCell>
        <mxCell id="59596a_35e80KVfduihG-58" value="&lt;font style=&quot;font-size: 18px;&quot;&gt;User Location&lt;/font&gt;" style="text;html=1;align=center;verticalAlign=middle;resizable=0;points=[];autosize=1;strokeColor=none;fillColor=none;fontSize=21;fontFamily=Times New Roman;fontColor=#000033;" vertex="1" parent="1">
          <mxGeometry x="-440" y="-418.84" width="130" height="40" as="geometry" />
        </mxCell>
        <mxCell id="59596a_35e80KVfduihG-64" value="" style="verticalLabelPosition=bottom;verticalAlign=top;html=1;shape=mxgraph.basic.flash;strokeColor=none;strokeWidth=1;fontFamily=Times New Roman;fontSize=18;fontColor=#ffffff;fillColor=#008a00;rotation=15;" vertex="1" parent="1">
          <mxGeometry x="-239.98999999999998" y="-200" width="81.06" height="184.99" as="geometry" />
        </mxCell>
        <mxCell id="59596a_35e80KVfduihG-65" value="&lt;div&gt;&lt;font style=&quot;font-size: 16px&quot;&gt;$$ Charging\&amp;nbsp; Model $$&lt;/font&gt;&lt;/div&gt;" style="rounded=0;whiteSpace=wrap;html=1;fillColor=#d5e8d4;strokeColor=#82b366;" vertex="1" parent="1">
          <mxGeometry x="-239.99" y="-301.49" width="203.5" height="40" as="geometry" />
        </mxCell>
        <mxCell id="59596a_35e80KVfduihG-69" value="" style="html=1;shadow=0;dashed=0;align=center;verticalAlign=middle;shape=mxgraph.arrows2.arrow;dy=0.6;dx=40;direction=south;notch=0;strokeColor=none;strokeWidth=1;fontFamily=Times New Roman;fontSize=18;fillColor=#cdeb8b;rotation=30;" vertex="1" parent="1">
          <mxGeometry x="-101.06" y="-529.43" width="45.31" height="227.94" as="geometry" />
        </mxCell>
        <mxCell id="59596a_35e80KVfduihG-70" value="Power" style="text;html=1;align=center;verticalAlign=middle;resizable=0;points=[];autosize=1;strokeColor=none;fillColor=none;fontSize=18;fontFamily=Times New Roman;fontColor=#000033;" vertex="1" parent="1">
          <mxGeometry x="-29.560000000000002" y="-418.84" width="70" height="40" as="geometry" />
        </mxCell>
        <mxCell id="59596a_35e80KVfduihG-71" value="" style="html=1;shadow=0;dashed=0;align=center;verticalAlign=middle;shape=mxgraph.arrows2.arrow;dy=0.6;dx=40;direction=north;notch=0;strokeColor=#36393d;strokeWidth=1;fontFamily=Times New Roman;fontSize=18;fillColor=#f9f7ed;" vertex="1" parent="1">
          <mxGeometry x="-487.5" y="-529.4300000000001" width="55" height="185" as="geometry" />
        </mxCell>
        <mxCell id="59596a_35e80KVfduihG-77" value="$$MADDPG-based \ Method$$" style="ellipse;shape=cloud;whiteSpace=wrap;html=1;fontSize=20;fillColor=#cdeb8b;strokeColor=#36393d;" vertex="1" parent="1">
          <mxGeometry x="40.44" y="-341.49" width="440" height="120" as="geometry" />
        </mxCell>
        <mxCell id="59596a_35e80KVfduihG-86" value="&lt;div&gt;Computation &lt;br&gt;&lt;/div&gt;&lt;div&gt;Resources&lt;/div&gt;" style="text;html=1;align=center;verticalAlign=middle;resizable=0;points=[];autosize=1;strokeColor=none;fillColor=none;fontSize=18;fontFamily=Times New Roman;fontColor=#000000;" vertex="1" parent="1">
          <mxGeometry x="150.00000000000003" y="-428.84" width="120" height="60" as="geometry" />
        </mxCell>
        <mxCell id="59596a_35e80KVfduihG-87" value="" style="shape=image;verticalLabelPosition=bottom;labelBackgroundColor=default;verticalAlign=top;aspect=fixed;imageAspect=0;image=data:image/png,iVBORw0KGgoAAAANSUhEUgAAAMgAAADICAYAAACtWK6eAAAgAElEQVR4Xu1dS6xcRXquvtcGpIHYA9IYiITtURiINBG2lAgGP/BdTfAGWwpkaZssZpMMeBXFLGgvIMpq7GQ2bMAsgUjYG8isuH4CShQuSjSBQRouSAE8EpNLIJINvu7U1911fbpvn1Pf/1fVeXSfIyEbd516/PV//7vqdEz7JKfAvu5bm781N20zZnUHBusYs9kN2jO9zR0zvykzicxvq58M/r2z3DNmZd50Vq6bOfvftyvvdBeWk0+8HQB71T6hFHAA6JnVbXPGWCDMbTWmBzCA2e3/3wBE6Fjr3+8sd0xv6bq5/n7PdJYs2JYvdXctxR9nNntsAaLYdwDimtmwwzLlvo6Zeyw9CBSTtFonC5ybzeriYndhRdPTLL/TAoTYfQDiqpm3YOjtqC8giIUYs2jNNatlemcudPfYv7ePjwItQHIotLt7fp81Wax26O2zTfq+w7Q9dvNPwzQzZsPp1iybvLstQDJ0ebh70QLh2oGhlphKUBSA3JpfnVOtdhml0MwD5KHuW9axnjs8o6DIw8tSz1w/Y7XLqVmPls0kQJxPMWc6z9bTwa6PMTcww3pnLnX3nqrPrMqbyUwBZBCOnXvahkIPWd9iW3lk5ke69ZYN5psr1/gXSm3ZObFqvjs5S1plJgACYHxnNlpt0Tts+WktEZeat8Dsd22+2dy5+ZbBn5sGf+Lf8eDP226ZH/n/7JwAFPz39ZXV/p8OOPj/L1aumM+/umL/vGreW/4q9VJG+odWuWauHZ0FoEw1QOB0W6cT2iIpMMDoO7dtWgPBvXd+bw0YZXEuAPPRF/9nPreA+ejyN6UAZxaAMpUASQ0MAAIg2Ll1k9lz/x0jWqEsQLDjnP/gyz5w3vvkq2SaBkCx8zk5jbmVqQJIKlOqSYDwAScxYBatQ3/y7e5eAGYqnqkByE+65w7YcO0vYjnfDhRPPHh333xyfsNU7HpmEa++85k5/+GXkbVL55R15o9Pg4/SeIAMMt7GAiNOthtg2HPfHWb/jh9MLSgmgbxvhlln/9V3P+sHAOI8vaMXu3tPxOmrml4aC5CY5hT8CYAC/gT+PusPzLBzVqu8ufS7GKSwSce5I00tZWkkQB7unrOZ7w60RlDIFtriyUfu6ZtQ7TOZAjDB4miVzomL3d1Hm0bnRgFkqDXgZyBsq34AiJ//9IetthBQMBJQVuwBsaNNyso3BiDD6tqXtE64c7rLBgaSe/3cxBeD3MQ3V5H4Q9JvNPnnEoLgWSQP8WDON/4b/NtdNtl4p0023mWTj1VovjhA6Zyy2uSIAJ+VNa09QEJ9DZfEgymV0r8Ag8PRxX9f2Aw3HF4Ao4yyEfhOt1pQATwATRnAecP6Jy+e/TTEoW+Eb1JrgAxP7r1ko1QHNCIkpSnlAAEgIExaFhhYOmDtLviQEjAAyj/+6rdqQWBNLuvA17cQsrYAGYZvX9c44tAa0BhPPHQ3y09UO4ChroDwLaAfodtis/+JNMxzZ34TEPWqrwNfS4A83D3bteczUIouegAMJPYAjFiJPeQEICWhJWA+TcODgkkABrRCIWWsB/R53gJFSaelVXPtYN2Si7UCSEiUKqY5BfPpnM0FvGaTZsrNjsVzyftxidGY2haOPMwuzWNLVQ7WqVSlNgDR+hsxzSmYT2+8f9mc/+D3aptawxR1eQdaZf8DP+hrl9AHQuakBYku2VifDHwtADLQHBvgb+yTbAyk3zOP3RtsJgAYkHjTri1Y2oKuj1qg7N+xhX0lt51em9QDJJUDZFiabsEhO+EHkwCOeIiv0QKjmP8RBXvc+imhQIHg+btX/kscErbn4o9f6j7SDUZpQAeVAkQTqQIgoDVCzIAWGDKOiQUUTaQLZ03sOZODshnHa10ZQDT1VKEmVQuMMMYBUI499qOghKvS5Fq82N2zEDZ73duVAESjOVxeQ2NSwWFE1hfh2jIy27qtaM5bMG9RsqN9lCZXJSApHSADn+P6W5a4VCUuAIHNwPkMzQOtgdg8Mt3tE48Cg33ZrvZPIKj+5uX/kAZGlqwm2RlvFf6eSgWIBhxafwNSCloDZxvaJx0FYHb9/V/+sTqSCJAIb2UpVZOUBhBptCrEGYedC3C05lQ6YIz3DC2vTTbKnffyqoFLAQiu95w3G61ZxYVyUf7wy0M/FkulsORUecw0rSMhiAJtovETkYeCYOOfcvIkyQEyTALC56Aug9aq7NbX4FkrZUuA458O/Ykq0vXi4qd9zc8+ZVQCJwWItHwE4ABxpRKoNalYliqvndbkQqQRQRX2sQy8kPI+rqQA2dW9gOOxTzOL1YCjNakYylbXRmtyIbCCzDv72Eshdqa6FCIZQHZ1z1lg9C9W8D4anwPgABGFERDvXNoGcSmgEXyYgTChuLLRXNue4hNzSQAiCedqbFaEcI+98us2txGXl5P1ptljTEYY3UoS/o0OEIlTDsIh6iE5EtqCIxkfJ+1YCxJYCXwuK35kKzpAbBnJ68wZck2eA+YUCNbmN5LyctLOEYSRCERMRpJMjO2PRAUI63dowPHG0mV7ZuPjFhxJ2beczo/ZamxJCb2wLGXFlqN8P9ZKogFEUoCIwsMn991Dr6EFB02qxjTUgOTwC0vUmZKYJfJRADI8S/4ekyl/1BYdPmNLptkHPgdUbGtWsRRrTjupuQUTG7zAPLHOtkcBCJvvQDj31M920InAFhwMKzS7zUs/2ynKukuy7TH8kWCADE0rlJIUPtKIFa7bgbRoy9R9lG3275rolsBpDy6PDwKI5LIFSemB0ClrNoe0s+9bFP/81J/SlgX4g/VHQk2tIICwF7xJ/I42Qz6biMFldjC32Do8gT8SFNVSA2RQwr7BOubFJwOlfocsMTSbzDStq0Z+BI47+/Al8vqrTdUAYROCkkiFsP6GpWPbrkEUkJjiWBbrj9hrTbdrrjVVAWR4I4n9VkfxIznc30asfNScnd8lkS0Ec/7i5L8xxFHVaokBMnTMP/aZVhLHq3XKmf2dnTYS3gFVWFNL47CLAcI65hJVyS5wdlikXanEHxFEtcQOuwggrPaQLK71O1ow5FFAUo7CH7KSVfyKAMJoD0niB/Yj4tltGUkLkjwKID/CfsOEjICKtAgNEFZ7SAoRyQW13DPDFJBYIxC0f/4P73ipJbnsgQYIoz0kOQ9eJXrXO9IARzzdt89d0kl4Mk024Ay2Bl333H+7+StblY09d99rfO7MR1S1rZRkOFTHXlZO1mrRWoQCSGztkSpqVfRJBISRj7yAvGb7hFDAd5YnhTDCmP/ytw9R02YddlaLUACJrT1IlFMEcY1QzvKUvd2vqFShjZaJSDqxMZPbSmE6S8qVOP7qLNtvtW/3UcQLkNjaI4Vjzt6cAemCpFIbFPCxRf7vkORMvRS0dewvdrEJRNYXYfIiXoAwx2gliR22NIDdQonfgz7hxLUAYam7vt2FZ3dTL7OmDtXZsBEEIUDCPJwWMd5yeAIg53HWY1/RpNjIVWzHXHrGpAUIw1rFbViAoJcUfh+bG2G1iK9GqxAgw/utCj3bKrUHC0y35YIS6XBOmtIeWDPHLT92Ihhl8a899WcUdTmfs/imeA9AznY7Zu7ZGNojNnNqrrWMbd5RuzRljWDSInkneWLTnQ37klqkMOSbCxDGOa9Ke0iy9akkmYRBpq2tpM4OaycZlSaTxBdhws5FId9cgPyke+7AnOng2+W5D5I3QLPvia09mFBjdk5tKb1vh+S/S00thlEls2DH58CZb2blAoQ5EMWquphxcYnWctKLPb+c3SBIqT333dHP4CI0jcsjXn33sySZYgljhLYF/Z6w3z6HiQrm0a6rrH3IW69EiyC0jz0seHLNrIkAYZxz1haNHcmQOOZgAJQ/8He7DkhYlHSMLQlDGV7yfux1SeqkME/ptz98a2O1CDNunpmVA5B4zjkXSfCRYvC7VGppxvY5/yni+9zqw1ox+SKNM82a2SHaPG/lbHadMbPybmOcCBB7EZw9MVj8PUGmDDl25lqiPTQ5F4aJUkjCMNbn3mZopwU/a2pjpmQCj1qURGAymn9STmQdQBjzilWtGibNowyIgVsZ2bMBUmkoSToyEona4RIbsUwsOOO9NnvW3HZahClJZ0nDJg45Xlx/mGodQJjSEjbMF9M5l6hyjhijW8CuCW/F9qtYZghpx9rrGENDv2P2vuX9tmCUeRhpzvSDNqywRlufsz7JzFoHEF/0ilVrsc0rVgKCENJCOQmRtQzEbniqdhIBoKGhRItoAFhEF8bcx/uET7oumjVBgxT7H6wkj1liwIISRGAiFuPEloAP70rNN4bpwWAIXbrQqycsyXQ50kbCwFotyWqR2MKTBT8DzHE/ZAQgzEXUjLMXm4lYUGokn1R7xAI+QO9OPqK+aFIJOTYUeQpIvhgPy0huLKkmlhxsimlmScb1V3OP+iEjAGEORjE3Jca20VkJrxmX7dtJ1dBvlThgwF5nzlVgXEjckxYkb9pviIc+zP65MTT0ZM0dRppL1sqO69P+437ICEB2dYtL21mkxpKyjkDs4qXjSrKx2hBodpPZg115jAGzC4GPkINI0migz7EdnyurpWJHAtlxiTDziB+yBpBhceL/FKGWNXViRq8ktrN0XNZcBE1CTYJQcLh9iXGeX2JWSoUOK0SxHin4YvAmA8ysH7IGEKY4kXXCHj/5r9E+fMOCkln4OIFZcyO02DIWOLIgCT06zIZ9NXRlNX6o0MnupwSYEj9kDSCM/8EsXGO3FkkGtnJXatNKCCrVTOMbJ/k4DGt3axJ64+Yee3xVKulZQUqEXVly9NuxAs8HzKwfsgYQX/6DtdelKtlHAdYM8i16fBxWM4UCnp2/jw6Tfg8BLvpjBB7aSRmZpS3hD4jIwtKaSAWs+SFrAPHVX7GFYaGbNk4RVhpJx2X7DQG8JH8j4oRh41Atwjq2Uu3M+jjSfn00YoHJmI0bzbXvL3YXVvoAYRx0lph++863zNHf2TCsL3w3PirbrxR42XFYiSajyGjrkPmxDCX1wdjASmyASASSj0/dF3L7AGEKFBmGCjVHJjEK60xK7WTWXpX2m10DQ7MQcODdECZj/TCppmL7TcEv7L76k6CDhOEQIOcOd0yn8ItRjL36xtJl87w9oBTzYcbFeLuPXxANm6rf7CTYMUQTH2scAhB0xVwEx5gk42tgrgfS9OujFWvp+Pyqnrl+/FL3EXtpiX2s//ELe/7j6aLBmQWH2Ot5YzPjSiUcyxiafrPrYObu23Df76FMxmpoqQBigKcRbD56sFFPX4DARbL6AIkVwQqxhyctnFXVGiZhmFfTr1sHG/XzbTjzu5R5s32yAPHZ7OPzTNWvjx6sX0Vo3v6ti06DFJ4gZCNYMROEjhCMJNIwcqp+3bxZcPs2nPldyrwaM1AKQta8lPbrowdLd8I66Id6O0wEi1VbsRcLYrCEljJJagnHbpRvw32/hzq6jCYlmGndNFP166MHaz4zQhWh3k6dI1hYbLyoxChpU/WrMV+YTc9rQ5gKud2z4VgpCFP1y9KJFX6+CKU1rxY6zBkQZsCQjSpaOJvQk+ZBYkU7iubOjsFu/KR2IYER1jIgMs8jU2P9L2m/LJ1Yuvt5pneUAghj5oRsVAwm84Xtxsdgk3jSJFl2HNZhZDd+Ujv/Juf3zuZppHvL+qzSflk6sXvr5xkLkIe7/hwI49D6wmbs4rSM7F/saM9sOQTe8qniorUx2ldLmxCtLck6S6OTrGZKxTPs+D6eQS6kw9xiwjhcvsG0TMBKYY0jyWhGzDtE0kmAKKFR6LkQVspqzo+zmklaYMrSh9VgPoD2AcKUuTMASbVY1uHTSHrWvwk9TcgyDMsAoaCVaA+plpL0LdVMLH1YoeoXfJ0TVoMUZ9FZBk21WBCFlfRSLcYSEnOQMkp2MzWfayhiBji3WCuAq3lY7YG+pfvK0pQJs2rWhnfYOfiDBJ1TAIitweodzpsMG5GQElKyeFbSS5lYmqsI1ZJsaLmINpB6L579VA0O1vzAHDSak9WW0r2S8Atr1vrmgHITRLFe7xlzIBQgIdEU3+JZiaCRShJpinmGrjMEJH6ToJiS0qO/Pht90mistk8pUFmhTgHEd5MJi0Z/+bAPBvm/SyS9VMpLb/nQSNXsykIAomFYN7bUzNM45xJBpvlmC8tB7HcMiRD+ojWxzuMjnTvyBmcXnaIOKzsnVnVrtIjE7AjxR1jJlrcXmrW5vqSaUgNGNqTtk9wsEPLasQKVqBBYAkAKP/NcF4BImFiqRUBo1jRwmyKt/cJ7UiadxAAaTc1+1sGNh5A5JLwkCCDZHw34JKBhNYg/NdBZjgYQzcZJFs1KBedcSq/YZ01JN2eNLyIF4ST6+CMv69+Sai6pfyA1U0MSrwzPsAChNIjPSWcZR8MwzGI1Zhbe0UgpiRSUCgRWE/toojGzJADR0E2iGVObV6Afu17SB4kT5i0DIGxOxmkRjSPIhJQ1DizTrw8c7nepCclKeE2UTJIYxPzL4BNWqBNghZNe/0RhlnEkjEZIiIk86Ys0SROSUibyAYXY2HVd+LSj5lPZWNczj93bT8wxj2beTL/jbViA+M3VQaKw8Dw6a/tLpZpm4XiHnY/rX7MpeRsPzeGy2JL5xzKvsmNq7Pg84QJBgq8BS79JwpaVO40O7RFy8TZLc5befo0ZESBSqcoudlI7iRbB+1rwQuretWnwYRt8p+PN9y+rNpgNUYNB2W8waumNtTz6wJa1Ty+c//BL8WeyQVO2Ytbtn58ZQzhi9F2ftuTnZGuxYhUrapw7LUmkWqQs23fSeiTmFWgIBmZMFn+IUktd/3u+T2WP9xCaXPXPaLQFC14fz9LVvFWeB8kjjiRy4lS8xmmXbs54e3az8B7Mpp3b/sDa9T+ihtWYWVTHBY2kORV05WPE0Dlpae7XwvbAFPPZAwYgGls/lDBs5taNo3XaQ+bpc/hd345+Eu1YNuNhrqy56Nalcf5D6C2Zo8/07pneEerILbPJmvh8KCEk5osbq4wwoxuLjcejfTY5x/pYZdOcjQ659Yce6tLyB8Ov4zSfNNZ10ztIXfvDRitSXPvjI5J00/xq1Tci/ztrBo7nVdgoDGYiTVjys1/fUmIuYk2IjEEzlv2wFQs+E7UPEEze1mPh02ub8xbCbnTqgsW8+UkYqsxoCrtRk8xT9l1/LD8ee7J8gBHLFETZFbJlJoz2xafYHECiVPSWab6MbztrlkjrjLTsJQHtpDmxWpvZaO0axt9j11SmEBqfI2tR+OuwOssXu7vXAFJY0cs6jlVJDUckn+1ZpsPIAjYvXMvSHGv3OZuxAIJ+fIERBEIAeEklcMz5sWYgoXkX7dWjC1Fvd68ikpUlbtGhIGwYNg4bmPqRBA+KIlGsmVUm3RHm/eWhH09MaFYNDuzrMVv6sn/HFu8W+7Vc54TVIEejfh+kijDqJEpAiuy57461DDgY6NV3PytNqrGmCOZe5GSz0hD9+BxOL8cIG8AEhDkDm99VGUAqV6U53PTZMLTP1EaI91J376k+QJhciM98QT9l2sPC/Sy1ObtJPjtYYmZVbd6WSuCCwVit6xMoiGC93d17Ovo3Cqt01OuwSbHMK6lErLL0pA50xxwkeSffiVBEsN7pLixnvnJbHOplzYYqsrt12SDMI7ZZxBbeVWFm1YnuEtr7NLfta+JnoAvvx2LV/aybWYwpis1kHWuW7uhz1oUTa9r6HXTT/7oUaLqmQZiqXl+Iz0kUn/qqm+SJNR+Jivc5idk5sSHjWRZOEtPWT/tBBGsEIMyXptjkVZlx+VjMHaMfSaYZvhob8UG0CLRnnjJLT5j5lNWGTRAyx6Wdgz4CEPyPr+Sk9UOKt5uNoKRkGiIBlnL4yvpmhROTinAO+iSARMmoz6KqZ4VHag6aRdqDpqzvR/hpa/7HOoAwfgg7kaoKF1MzYF7/rINYxvxmzcSN6/vd8D/WAYRJGLKq7I2ly+Z5W+48C4/EQSyDHmyErIy5lDEGy5NS/2MdQBg/hEXrLKn6uphXWWb0ZYrLYNyyxmB9P0JwrNhPP29f7C6suLmvhXndP/huWkQ7dkKzourrZF65fZyV0hM2egW6+MK7+B7Ihe6eg1lgrwMI81FPNtw7C2aW5LbHsiQqxpmV0hOWFxnzCreYXOo+0i0ECJMPYbO7s2BmSUpLygQIxpp2M4u9UhW0ILLnJhvezTWxBn5I8X29rZl1g9XZqB7qf2LdKrjfXmjHPAxTMP3UtY3E9yOKaEfCu4UAYaJZbBHdNKt6NmDB2L8SJmxLTwbUkggnVBgUPZPMK7Rf54O4TnxZddbMis0cEkZK3TZmeFEy18iSUzJ0bdpKnHMiObhizaudKG8fX2ABQIovtUZHrCQjyotrQ3jJRNhoHhFelAzbb8uOPa2lJ6z2AK18vtik6FWhiYUfbbh3n/36LUpPch8JiqetiE4ixX3hRTE67AuS6I30a1ua+ZT5joTvGOGULU6kNQgaWmf9Y/sN9W1Fi2cl2bRpETb3kcoHk5i405aPYmkPvvULp87yRvPdzmxyMMvvuSbWECCF3w5BG9ZZR9tp0SKS0hLC/lULX1Y4MVJUPYmSX5QERhihnOece00sNGByImg3axslMa9SCgVJDsZnh5fM5+rh2Gt9MACjOXtmbuel7q6lvAkVapChFik8ijuLWoRV8YwEU3OKfVFiZk1D6YnkuyTkp6z7l8MV7YEXILG1SCqbPITRJO9KSkuw1n9f/l9J9+K2e++/fe1rUUUvN53uWJskcsVojyLnnDKxXCMmsy7xRZoszdjch5jTS3ihyWaWxJyMpT2wJV4NgkYPdd/aNm822IhW/iOpi0GNFmxz3MjXtEcixeq2tqaWnkiCIqA5I4AZ7UEDBA2ZMniJdG1iZEUSQakbODCfphaPsjkfrJHUHhPrribtGaVB8OLD3Ys7OuZ6cUGLbcdGtNAnUUBWKz6TCIBaTTwzmabRXJIUxDIZ38Pdu8vsEQ0QdGbrswq/I4I2kgU1zXGUgJ8hfhVtmlR6AtMKEUPwFPOQVgmtPUQmFhozVb5ox4ZB0bYph6okuQ9mM6tq0yQzS6Kx2e8hSrSHGCB4gfFFJPF59OkvB6iKnW6MKwF99bMtngFjhlS9BqlAIisWRNpDBRA2LyIJy9U9qiWNolTNXL7xSVPE102y3/HNEVxzC7ozD+mYG6n2UAEELzH3Z6Ede5cv2qbOOjOEzmsjkWaSK0VD5jTpXXw06Ml991Dd1jUnAlA8Y78SBZqzD2OBFJW0F40jctJdRwMtstE67MWVvhKHHX3XNU7PmldVg1xi2jK5ApZBY7aT+B0Yl9SGK7bmaqGo5ipvDSqAoDPWYZfEsNEvIw1iboivL0lpCWkH+4YM+p09xFbHCKKk1gpE4h3z9beVsERWAwQDMA472klMLXbR7AJD27ESDfM+/MJSP1FV5SMp+amTmYUkLKoUWL9DIEyX7GVwC3nnPXx7FQQQpgQFE5BIYScZ6lKKwoKbVPW+/Qj+XWJm1cWklZQpOQKxc7cMvmAvg1vUEjYIIBjUFjJ6D1WhncTRRXs2MqFdOPOepLSkTqYha2bVISciTQZi3/jv3Y9eRM3s+XibYIAMQOLPsKMdu3FuklU7vRLzCuYK+0EczUZJ3pEER6osPdFErAQm+Lp7diU0dG2jAITNjWBQ1mRxE2Q+eKJZOPMOW1rCqntmzFht2LlXVXoCcPz8p9vN/h1bREtmNbUm5zFpIlEAgo7ZqJbUH0HfVdj3EpOwSimcx11s9LAqM4udX3Z9vCAKN62iahDXGXOwCm0lJoDru2yQNCX3kQcQibNeZukJ5gXTFZUWkgf7/5z93gxhxgZFrcbnFE2D3AAJ549IJHQV5hZrotQh95HHaOwayhI+WrOKd8qNOiGYR8PoAGFDv5iQpF7LLaAsx/3Cs7spAVenXML4hFn6lgEQjUOO9QjAYdhTgtTGDhtFB4jEH0FbaWRLSjQJMbJtGelbZQCBWRdrZqV21LXgQKj/r1/+TzL5Gs/vyNI2CUAwAOuPaEEiCPcxvLSuDRPiZSMqqglEeokRQCmDDMglwZ9DcEbyCPd30WbLD2qz5UXzSgaQAUjOF35WOjsxzWUIICKYFJI8xVMUkk4tdWOtx6dF+MiQfEYIxqAyVwMOOOQw/YgnSr4jb5ykABmCxHtMF+2wkQAJJI70SeUoD5zKH9pY/Y0P1gCUYKpX3/2MiahIl5Kk/SQpDvMFa8BaUjwuUiWprcI8QF8JOKzfceTt7t7TKdaAPpMDZJhEhCbZwSxCo0nQr8SZY+aRbYNNhjQEU+GqIiLUKB2ilPaQ5DiMhPmnWofW36gjOEoBCAYZRragSTYznMDmIMb7Sm1yMXOf5TZak0oBDtXpQM3eJNcgblLstUGuvSbT6t5NZXJpCDwr72hNKtBHFq3CG72jF7t7T5RB29IAgsUwH+XJLpqJJOURCSbX82d+E+3DmWVsRhPHgNaAMNP4jlgv9gmBFv4cTZpwbh7tSwWIBiSSA0CTFpkyStNEho41Z1cyggCG1BF3c0D0EeDgfbpywYF5lg4QDUg0tVtZRsAGnPzVb82bS7+LxR8z3U+Ir+EIJ6itGr5SPjgqA4gGJFDhSHppVblT58de+XUjL82uAyJBe5i9khtHxucNYfXi2U+F4eXOCfuZtOMpEoE+ulaiQdykho47QsBUdAvvhTjvblyYXa+9+98tUHzcMfwdoeHHH/zDfj5Ia045AQVwkAnANc1RFTgq1SBubwYh4I0WJMVXCGX3MtQvcX3h2tOX7IY18TMMJG8HNYPGePSBLcHAwCTk/gbeKi9alUeoSjWIm5Q0mYj3YphcWXsY90S1QBlQBD4GLqEL1RjoS2dSoWy9d/RSd++pIIRHeLkWAME6NCDBezFMrixQUH6RqrYrwn4l6wKmE4TOEw/eHeRjZCeIEC4Ej5CeK6nLRyRErHBvPScAAARQSURBVA1A3KQlVcDuHW3FaB6hIPVQjDgLfgq0xc6tVmPYqz5DAiBZWjqtARryIVz00Fnumc5BzQ2IEqaXtK0dQDD5Xd1zT1ti2euEZA97QEjSK6Qf/mtScaJvfdAWMJ/gX8QChRsTtILWgPYQPkurtmT9ne7CsvC9pM1rCRCseBDh6r0ucd7x3qQK3FgURPQFG3/+w8GfTXoABOdb4O8h0ahJ61b6GsOuqgvj+vawtgAJMbnwboxklo94AMx7nww0TN0A4wDxR1u+Z/Za8yk2IBxtAIxzH/y+rzVk5lS/h9o443l7XXuAhJhceDeF2ZUnQR1QPv/qiq0tuip1Tn14nPg7GB95ClfKDkDce+et0U2nSYMHmFPobtGaVEfqZlKNr7MRAAkxudyCARREaKSn21Rcm3kJRXjQLgghf2GB87WVuAAPHkhcJ3WzIWYn7W+7Zb4v+d1/eKcPhk239AHgwJFKO+StPRAYK9ZsPr7RrJ6qIjMu3c/GACRjclF3AecRoiqgSDembu0BZBe2DTAnaxXCZWjcOIDc0CbXX7J/p04pTiJECxSGPQZaLgIwGmNSNdbEmrSd2nBwti/E/2F6sZ8a5tiq+a3c2fsIEbslm/g7nvLceEpqN1KDZAky/BwczK7DIYRKmRsImVeZ72a1RYQz643yNfLo3HiAuIVp8yaTCOOyyzDDynaAywSEGwtONzSFPPM9ebaWqU5fM9eO1j1CxdB6agByw4lHFn7uKWmCMY9YMMFQigHQxM46MxuUoo3TFA4YAU73+PQW7ccybZHhrqUU866iz6kDSCqgoF9okz33327u3XJrlErXsjZ8HBARzKfxqVtA9F5uSuhWQvepBUhKoLi+HWB2bt3c1y510TAOENmyGEWWm+GjRQuMM9MIDLf4qQdIGUDJchISkQBKNqHnMt0Mx7Ft3OVv7jI7JCFhMiXQDpOmtGgZ53jIxzHZdVbdbmYA4giNL2HNm86hnjEHyiY+wDOaHZ/vT+E2ZMtv3tD/uwsK9LPsV6/1M+/fXFldy7jj378e/n8irZBHFhuVMkvT5mP4eGDmAOIIMggPzx+O6dD7iN3Q3y0wOqfsOY2Xp8n5ZvdiZgGSJdDgQrvOodBcCkv0BrRbsYyxeN3MHb/JfLvchJqpVDRtATJG2WF2/jH7z/tSEb2m/Q5NqN7LN5nV07MMiuz+tAAp4NbBl3vnHrGaBWBR133VFBCYVh8U0x6JCqF/CxCSevBZvjXzBzoDwMDBp+/yIocoo9lQS1w/a8yG07NuPjEEbwHCUGlCm4Hf0rNaZW6rBQy0Sx1NshYQyv11r7UACSRg9nVomatmft+cMdtKBA5AsGw3EjeCLBtz/ZOO6SzZWqhl+1XAldaXCNvgFiBh9KPfxg2Sc+amzT2zasHTvzXcmmiD2yQ7Zn6rvaDC/mY2238Hw9sPxHTwZ//vg/9f/coy/vA3/Pv8Umsi0eRXN/x/hGzEwafXnVgAAAAASUVORK5CYII=;" vertex="1" parent="1">
          <mxGeometry x="140" y="-635" width="60" height="60" as="geometry" />
        </mxCell>
        <mxCell id="59596a_35e80KVfduihG-97" value="&lt;div style=&quot;font-size: 18px;&quot;&gt;&lt;font style=&quot;font-size: 18px&quot; face=&quot;Times New Roman&quot;&gt;&lt;font style=&quot;font-size: 18px;&quot;&gt;Task Partitioning Strategy&lt;br&gt;&lt;/font&gt;&lt;/font&gt;&lt;/div&gt;" style="rounded=0;whiteSpace=wrap;html=1;fillColor=#dae8fc;gradientColor=#7ea6e0;strokeColor=#6c8ebf;" vertex="1" parent="1">
          <mxGeometry x="452.94" y="-80" width="220" height="40" as="geometry" />
        </mxCell>
        <mxCell id="59596a_35e80KVfduihG-100" value="" style="html=1;shadow=0;dashed=0;align=center;verticalAlign=middle;shape=mxgraph.arrows2.arrow;dy=0.6;dx=40;direction=south;notch=0;strokeWidth=1;fontFamily=Times New Roman;fontSize=18;" vertex="1" parent="1">
          <mxGeometry x="840" y="-280" width="42.5" height="80" as="geometry" />
        </mxCell>
        <mxCell id="59596a_35e80KVfduihG-102" value="" style="html=1;shadow=0;dashed=0;align=center;verticalAlign=middle;shape=mxgraph.arrows2.arrow;dy=0.6;dx=40;notch=0;strokeColor=default;strokeWidth=1;fontFamily=Times New Roman;fontSize=18;fontColor=#000000;fillColor=#FFB366;rotation=37;" vertex="1" parent="1">
          <mxGeometry x="-236.04" y="94.99" width="150" height="30" as="geometry" />
        </mxCell>
        <mxCell id="59596a_35e80KVfduihG-108" value="&lt;b&gt;&lt;font style=&quot;font-size: 20px;&quot;&gt;Low Battery&lt;br&gt;&lt;/font&gt;&lt;/b&gt;" style="text;html=1;align=center;verticalAlign=middle;resizable=0;points=[];autosize=1;strokeColor=none;fillColor=none;" vertex="1" parent="1">
          <mxGeometry x="-275" y="-470" width="140" height="40" as="geometry" />
        </mxCell>
        <mxCell id="59596a_35e80KVfduihG-117" value="" style="html=1;shadow=0;dashed=0;align=center;verticalAlign=middle;shape=mxgraph.arrows2.arrow;dy=0.6;dx=40;direction=south;notch=0;strokeColor=#36393d;strokeWidth=1;fontFamily=Times New Roman;fontSize=18;fillColor=#ffff88;" vertex="1" parent="1">
          <mxGeometry x="412.94" y="-135" width="40" height="230" as="geometry" />
        </mxCell>
        <mxCell id="59596a_35e80KVfduihG-126" value="" style="html=1;shadow=0;dashed=0;align=center;verticalAlign=middle;shape=mxgraph.arrows2.arrow;dy=0.67;dx=20;notch=0;strokeColor=#36393d;strokeWidth=1;fontFamily=Times New Roman;fontSize=21;fillColor=#ffff88;rotation=65;" vertex="1" parent="1">
          <mxGeometry x="182.1" y="-453.3" width="200" height="50" as="geometry" />
        </mxCell>
        <mxCell id="59596a_35e80KVfduihG-136" value="" style="shape=flexArrow;endArrow=classic;html=1;rounded=0;strokeColor=#36393d;strokeWidth=2;fontFamily=Times New Roman;fontSize=18;fontColor=#000000;fillColor=#ffcc99;" edge="1" parent="1">
          <mxGeometry width="50" height="50" relative="1" as="geometry">
            <mxPoint x="210.44" y="-110" as="sourcePoint" />
            <mxPoint x="240.44" y="-220" as="targetPoint" />
          </mxGeometry>
        </mxCell>
        <mxCell id="59596a_35e80KVfduihG-143" value="" style="html=1;shadow=0;dashed=0;align=center;verticalAlign=middle;shape=mxgraph.arrows2.stripedArrow;dy=0.6;dx=40;notch=25;strokeColor=default;strokeWidth=1;fontFamily=Times New Roman;fontSize=18;fontColor=#000000;fillColor=default;" vertex="1" parent="1">
          <mxGeometry x="150" y="120" width="170" height="70" as="geometry" />
        </mxCell>
        <mxCell id="59596a_35e80KVfduihG-146" value="" style="html=1;shadow=0;dashed=0;align=center;verticalAlign=middle;shape=mxgraph.arrows2.jumpInArrow;dy=15;dx=38;arrowHead=55;strokeColor=#36393d;strokeWidth=1;fontFamily=Times New Roman;fontSize=18;fillColor=#f9f7ed;rotation=-90;" vertex="1" parent="1">
          <mxGeometry x="-567.49" y="-121.55" width="229.03" height="74.03" as="geometry" />
        </mxCell>
      </root>
    </mxGraphModel>
  </diagram>
</mxfile>
